<?xml version="1.0" encoding="UTF-8"?>
<svg version="1.1" xmlns="http://www.w3.org/2000/svg" width="1437" height="800">
<path d="M0 0 C474.21 0 948.42 0 1437 0 C1437 264 1437 528 1437 800 C962.79 800 488.58 800 0 800 C0 536 0 272 0 0 Z " fill="#FBFCF6" transform="translate(0,0)"/>
<path d="M0 0 C1.01256837 -0.00480972 1.01256837 -0.00480972 2.04559267 -0.0097166 C4.31198698 -0.01803082 6.57811802 -0.01208741 8.84451675 -0.00622082 C10.48409011 -0.00924087 12.12366207 -0.01312961 13.76323152 -0.01781338 C18.27240982 -0.02812128 22.78150887 -0.02590446 27.29069376 -0.02163279 C32.15245458 -0.01917058 37.01419607 -0.02817352 41.87594986 -0.03567028 C51.40274598 -0.04843405 60.92951393 -0.05020883 70.45631716 -0.04787002 C78.19973643 -0.04608833 85.94314715 -0.04783331 93.6865654 -0.05209446 C94.78788322 -0.05268965 95.88920103 -0.05328484 97.02389212 -0.05389806 C99.26111887 -0.0551098 101.49834562 -0.05632393 103.73557237 -0.05754044 C124.72774847 -0.06842275 145.71990851 -0.0662504 166.71208552 -0.06015559 C185.91775791 -0.05498761 205.12337957 -0.06623753 224.32904193 -0.08525381 C244.04457484 -0.10462539 263.76008374 -0.11288929 283.47562623 -0.10913056 C294.54625635 -0.10721725 305.6168433 -0.10971855 316.68746567 -0.1238451 C326.11360593 -0.1357513 335.53967645 -0.13717243 344.96581766 -0.12505493 C349.77499552 -0.1191605 354.58404577 -0.11808238 359.39321518 -0.13005733 C363.79757498 -0.14089677 368.20170035 -0.13783585 372.60604909 -0.12379565 C374.19756997 -0.12114334 375.78910912 -0.12353201 377.38061211 -0.13153151 C387.48610397 -0.17879113 396.39645614 0.04813519 404.88168716 6.25447559 C407.43298365 8.06349592 409.65701754 9.47279181 412.50668716 10.81697559 C415.76780335 12.56129355 417.08117232 14.21701676 419.19418716 17.25447559 C419.71496841 17.98666309 420.23574966 18.71885059 420.77231216 19.47322559 C425.19418716 25.83741952 425.19418716 25.83741952 425.19418716 29.25447559 C425.85418716 29.25447559 426.51418716 29.25447559 427.19418716 29.25447559 C429.88426723 35.92327532 430.6221557 41.73691071 430.56167984 48.89020252 C430.5665831 50.44320335 430.5665831 50.44320335 430.57158542 52.02757794 C430.5788363 55.4776297 430.56473754 58.92725285 430.55063248 62.37727833 C430.55142374 64.85808859 430.55352219 67.33889873 430.55682755 69.81970692 C430.56142169 75.84510341 430.55218047 81.87033379 430.53653958 87.89569973 C430.51896395 94.91244759 430.51757961 101.92917097 430.51692399 108.9459374 C430.51523832 121.46051352 430.49944897 133.97503149 430.47543716 146.48958302 C430.4521466 158.63704887 430.43800728 170.78447783 430.43442154 182.93196583 C430.43419877 183.6811934 430.433976 184.43042096 430.43374649 185.2023524 C430.43330389 186.71166511 430.43286187 188.22097782 430.43242042 189.73029054 C430.43220085 190.47479427 430.43198129 191.219298 430.43175507 191.98636246 C430.43143109 193.10027787 430.43143109 193.10027787 430.43110056 194.23669663 C430.42740324 205.81352834 430.41604655 217.39035409 430.40362467 228.96717928 C430.3991869 233.16488426 430.39574971 237.36258869 430.39300254 241.5602951 C430.38816337 248.8334575 430.37807019 256.10658823 430.36217499 263.3797369 C430.35764031 265.79935034 430.35481058 268.21896763 430.3537674 270.63858509 C430.35203025 273.92829716 430.34417021 277.21793686 430.33462906 280.50763416 C430.33592878 281.96046548 430.33592878 281.96046548 430.33725476 283.44264692 C430.33341362 284.31889441 430.32957247 285.19514191 430.32561493 286.09794235 C430.32374518 287.23775949 430.32374518 287.23775949 430.32183766 288.40060323 C430.19418716 290.25447559 430.19418716 290.25447559 429.19418716 292.25447559 C428.53418716 292.25447559 427.87418716 292.25447559 427.19418716 292.25447559 C427.07172623 292.99181934 426.94926529 293.72916309 426.82309341 294.48885059 C424.72764069 303.7036365 417.49399508 312.43912622 409.88168716 317.81697559 C407.19418716 319.25447559 407.19418716 319.25447559 404.19418716 319.25447559 C404.19418716 319.91447559 404.19418716 320.57447559 404.19418716 321.25447559 C402.8429046 321.88568695 401.48796669 322.50907394 400.13168716 323.12947559 C399.3775856 323.47752247 398.62348404 323.82556934 397.84653091 324.18416309 C392.26308869 326.43727527 387.233069 327.50460374 381.21312809 327.5117445 C380.54342711 327.51525057 379.87372612 327.51875665 379.18373117 327.52236897 C376.94753393 327.53164682 374.7115992 327.52676911 372.47539139 327.52190113 C370.85272882 327.52563922 369.23006805 327.53024138 367.60741013 327.53563178 C363.15415216 327.54785766 358.70096935 327.54760179 354.24769843 327.54524302 C349.44249098 327.54483475 344.63730759 327.55587507 339.83211136 327.56535816 C330.41955572 327.58196724 321.00702512 327.58746768 311.59445605 327.58858292 C303.94216642 327.5895335 296.28988505 327.59364432 288.63759804 327.59998417 C266.93675265 327.61759688 245.23592704 327.62682308 223.53507445 327.62532322 C222.3653087 327.62524331 221.19554294 327.6251634 219.99032974 327.62508106 C218.81913376 327.6249993 217.64793777 327.62491754 216.441251 327.6248333 C197.46404701 327.62402055 178.48692243 327.64315539 159.5097414 327.6713578 C140.0190023 327.70009457 120.52830191 327.71389763 101.03754109 327.71217024 C90.09705483 327.71150658 79.15665179 327.71698835 68.21618462 327.73852634 C58.90032399 327.75674862 49.58458431 327.7610769 40.26871357 327.7475075 C35.51784349 327.74098297 30.76720536 327.74084204 26.01635742 327.758214 C21.66182191 327.77397265 17.30770172 327.77105268 12.95317616 327.75364573 C11.38319387 327.75058196 9.81318037 327.75418464 8.24323491 327.76536588 C-4.09802633 327.84739535 -14.82400208 325.9719508 -25.18081284 318.94197559 C-25.77241196 318.54808643 -26.36401108 318.15419727 -26.97353745 317.74837208 C-35.22501113 312.09345989 -40.40717588 304.85015929 -43.43862534 295.25056934 C-43.85968124 292.96163779 -43.90251698 290.83035767 -43.86831284 288.50447559 C-43.8592894 287.70525684 -43.85026596 286.90603809 -43.84096909 286.08260059 C-43.82356674 285.17767872 -43.82356674 285.17767872 -43.80581284 284.25447559 C-44.46581284 284.25447559 -45.12581284 284.25447559 -45.80581284 284.25447559 C-45.87428356 253.06873789 -45.92735886 221.88302011 -45.95900882 190.69722507 C-45.96276084 187.01359035 -45.96664382 183.32995579 -45.97060776 179.6463213 C-45.97139469 178.91299086 -45.97218162 178.17966042 -45.9729924 177.42410784 C-45.98603837 165.55762216 -46.00968775 153.69118017 -46.03727122 141.82472039 C-46.06534795 129.64427599 -46.08199389 117.46385445 -46.08807832 105.28337902 C-46.09219007 97.7702806 -46.10516622 90.25730572 -46.12956224 82.74424534 C-46.14732809 76.97854455 -46.14917273 71.21292252 -46.14513588 65.44719982 C-46.14596055 63.08535089 -46.15191908 60.72349724 -46.16342926 58.36167622 C-46.17839136 55.13290578 -46.17475254 51.90466059 -46.16657639 48.67587757 C-46.17531491 47.74491986 -46.18405343 46.81396216 -46.19305676 45.85479361 C-46.11058524 33.77590542 -41.27927386 23.67849247 -33.39175034 14.72322559 C-31.80581284 13.25447559 -31.80581284 13.25447559 -29.80581284 13.25447559 C-29.80581284 12.59447559 -29.80581284 11.93447559 -29.80581284 11.25447559 C-25.29200296 6.72805731 -20.32392173 4.43836087 -14.20034409 2.89510059 C-11.78681301 2.32177758 -11.78681301 2.32177758 -9.58151793 1.23034126 C-6.2420682 0.05627765 -3.54010683 0.00255228 0 0 Z " fill="#ECF0CB" transform="translate(525.8058128356934,63.745524406433105)"/>
<path d="M0 0 C1.01256837 -0.00480972 1.01256837 -0.00480972 2.04559267 -0.0097166 C4.31198698 -0.01803082 6.57811802 -0.01208741 8.84451675 -0.00622082 C10.48409011 -0.00924087 12.12366207 -0.01312961 13.76323152 -0.01781338 C18.27240982 -0.02812128 22.78150887 -0.02590446 27.29069376 -0.02163279 C32.15245458 -0.01917058 37.01419607 -0.02817352 41.87594986 -0.03567028 C51.40274598 -0.04843405 60.92951393 -0.05020883 70.45631716 -0.04787002 C78.19973643 -0.04608833 85.94314715 -0.04783331 93.6865654 -0.05209446 C94.78788322 -0.05268965 95.88920103 -0.05328484 97.02389212 -0.05389806 C99.26111887 -0.0551098 101.49834562 -0.05632393 103.73557237 -0.05754044 C124.72774847 -0.06842275 145.71990851 -0.0662504 166.71208552 -0.06015559 C185.91775791 -0.05498761 205.12337957 -0.06623753 224.32904193 -0.08525381 C244.04457484 -0.10462539 263.76008374 -0.11288929 283.47562623 -0.10913056 C294.54625635 -0.10721725 305.6168433 -0.10971855 316.68746567 -0.1238451 C326.11360593 -0.1357513 335.53967645 -0.13717243 344.96581766 -0.12505493 C349.77499552 -0.1191605 354.58404577 -0.11808238 359.39321518 -0.13005733 C363.79757498 -0.14089677 368.20170035 -0.13783585 372.60604909 -0.12379565 C374.19756997 -0.12114334 375.78910912 -0.12353201 377.38061211 -0.13153151 C387.48610397 -0.17879113 396.39645614 0.04813519 404.88168716 6.25447559 C407.43298365 8.06349592 409.65701754 9.47279181 412.50668716 10.81697559 C415.76780335 12.56129355 417.08117232 14.21701676 419.19418716 17.25447559 C419.71496841 17.98666309 420.23574966 18.71885059 420.77231216 19.47322559 C425.19418716 25.83741952 425.19418716 25.83741952 425.19418716 29.25447559 C425.85418716 29.25447559 426.51418716 29.25447559 427.19418716 29.25447559 C429.88426723 35.92327532 430.6221557 41.73691071 430.56167984 48.89020252 C430.5665831 50.44320335 430.5665831 50.44320335 430.57158542 52.02757794 C430.5788363 55.4776297 430.56473754 58.92725285 430.55063248 62.37727833 C430.55142374 64.85808859 430.55352219 67.33889873 430.55682755 69.81970692 C430.56142169 75.84510341 430.55218047 81.87033379 430.53653958 87.89569973 C430.51896395 94.91244759 430.51757961 101.92917097 430.51692399 108.9459374 C430.51523832 121.46051352 430.49944897 133.97503149 430.47543716 146.48958302 C430.4521466 158.63704887 430.43800728 170.78447783 430.43442154 182.93196583 C430.43419877 183.6811934 430.433976 184.43042096 430.43374649 185.2023524 C430.43330389 186.71166511 430.43286187 188.22097782 430.43242042 189.73029054 C430.43220085 190.47479427 430.43198129 191.219298 430.43175507 191.98636246 C430.43143109 193.10027787 430.43143109 193.10027787 430.43110056 194.23669663 C430.42740324 205.81352834 430.41604655 217.39035409 430.40362467 228.96717928 C430.3991869 233.16488426 430.39574971 237.36258869 430.39300254 241.5602951 C430.38816337 248.8334575 430.37807019 256.10658823 430.36217499 263.3797369 C430.35764031 265.79935034 430.35481058 268.21896763 430.3537674 270.63858509 C430.35203025 273.92829716 430.34417021 277.21793686 430.33462906 280.50763416 C430.33592878 281.96046548 430.33592878 281.96046548 430.33725476 283.44264692 C430.33341362 284.31889441 430.32957247 285.19514191 430.32561493 286.09794235 C430.32374518 287.23775949 430.32374518 287.23775949 430.32183766 288.40060323 C430.19418716 290.25447559 430.19418716 290.25447559 429.19418716 292.25447559 C428.53418716 292.25447559 427.87418716 292.25447559 427.19418716 292.25447559 C427.07172623 292.99181934 426.94926529 293.72916309 426.82309341 294.48885059 C424.72764069 303.7036365 417.49399508 312.43912622 409.88168716 317.81697559 C407.19418716 319.25447559 407.19418716 319.25447559 404.19418716 319.25447559 C404.19418716 319.91447559 404.19418716 320.57447559 404.19418716 321.25447559 C402.8429046 321.88568695 401.48796669 322.50907394 400.13168716 323.12947559 C399.3775856 323.47752247 398.62348404 323.82556934 397.84653091 324.18416309 C392.26308869 326.43727527 387.233069 327.50460374 381.21312809 327.5117445 C380.54342711 327.51525057 379.87372612 327.51875665 379.18373117 327.52236897 C376.94753393 327.53164682 374.7115992 327.52676911 372.47539139 327.52190113 C370.85272882 327.52563922 369.23006805 327.53024138 367.60741013 327.53563178 C363.15415216 327.54785766 358.70096935 327.54760179 354.24769843 327.54524302 C349.44249098 327.54483475 344.63730759 327.55587507 339.83211136 327.56535816 C330.41955572 327.58196724 321.00702512 327.58746768 311.59445605 327.58858292 C303.94216642 327.5895335 296.28988505 327.59364432 288.63759804 327.59998417 C266.93675265 327.61759688 245.23592704 327.62682308 223.53507445 327.62532322 C222.3653087 327.62524331 221.19554294 327.6251634 219.99032974 327.62508106 C218.81913376 327.6249993 217.64793777 327.62491754 216.441251 327.6248333 C197.46404701 327.62402055 178.48692243 327.64315539 159.5097414 327.6713578 C140.0190023 327.70009457 120.52830191 327.71389763 101.03754109 327.71217024 C90.09705483 327.71150658 79.15665179 327.71698835 68.21618462 327.73852634 C58.90032399 327.75674862 49.58458431 327.7610769 40.26871357 327.7475075 C35.51784349 327.74098297 30.76720536 327.74084204 26.01635742 327.758214 C21.66182191 327.77397265 17.30770172 327.77105268 12.95317616 327.75364573 C11.38319387 327.75058196 9.81318037 327.75418464 8.24323491 327.76536588 C-4.09802633 327.84739535 -14.82400208 325.9719508 -25.18081284 318.94197559 C-25.77241196 318.54808643 -26.36401108 318.15419727 -26.97353745 317.74837208 C-35.22501113 312.09345989 -40.40717588 304.85015929 -43.43862534 295.25056934 C-43.85968124 292.96163779 -43.90251698 290.83035767 -43.86831284 288.50447559 C-43.8592894 287.70525684 -43.85026596 286.90603809 -43.84096909 286.08260059 C-43.82356674 285.17767872 -43.82356674 285.17767872 -43.80581284 284.25447559 C-44.46581284 284.25447559 -45.12581284 284.25447559 -45.80581284 284.25447559 C-45.87428356 253.06873789 -45.92735886 221.88302011 -45.95900882 190.69722507 C-45.96276084 187.01359035 -45.96664382 183.32995579 -45.97060776 179.6463213 C-45.97139469 178.91299086 -45.97218162 178.17966042 -45.9729924 177.42410784 C-45.98603837 165.55762216 -46.00968775 153.69118017 -46.03727122 141.82472039 C-46.06534795 129.64427599 -46.08199389 117.46385445 -46.08807832 105.28337902 C-46.09219007 97.7702806 -46.10516622 90.25730572 -46.12956224 82.74424534 C-46.14732809 76.97854455 -46.14917273 71.21292252 -46.14513588 65.44719982 C-46.14596055 63.08535089 -46.15191908 60.72349724 -46.16342926 58.36167622 C-46.17839136 55.13290578 -46.17475254 51.90466059 -46.16657639 48.67587757 C-46.17531491 47.74491986 -46.18405343 46.81396216 -46.19305676 45.85479361 C-46.11058524 33.77590542 -41.27927386 23.67849247 -33.39175034 14.72322559 C-31.80581284 13.25447559 -31.80581284 13.25447559 -29.80581284 13.25447559 C-29.80581284 12.59447559 -29.80581284 11.93447559 -29.80581284 11.25447559 C-25.29200296 6.72805731 -20.32392173 4.43836087 -14.20034409 2.89510059 C-11.78681301 2.32177758 -11.78681301 2.32177758 -9.58151793 1.23034126 C-6.2420682 0.05627765 -3.54010683 0.00255228 0 0 Z M-11.80581284 39.25447559 C-11.80581284 40.24447559 -11.80581284 41.23447559 -11.80581284 42.25447559 C-12.46581284 42.25447559 -13.12581284 42.25447559 -13.80581284 42.25447559 C-13.80581284 121.78447559 -13.80581284 201.31447559 -13.80581284 283.25447559 C-13.14581284 283.25447559 -12.48581284 283.25447559 -11.80581284 283.25447559 C-11.65112534 284.39916309 -11.65112534 284.39916309 -11.49331284 285.56697559 C-10.75041399 288.47103471 -10.23587301 289.54443325 -7.80581284 291.25447559 C-6.48581284 291.25447559 -5.16581284 291.25447559 -3.80581284 291.25447559 C-3.80581284 291.91447559 -3.80581284 292.57447559 -3.80581284 293.25447559 C-0.46499186 294.36808258 2.02261908 294.37982483 5.54364109 294.38031673 C6.19364054 294.38177018 6.84363999 294.38322362 7.51333639 294.3847211 C9.70648109 294.38839058 11.89955669 294.38489028 14.09270096 294.38145924 C15.67493767 294.38261069 17.25717412 294.38419837 18.83941001 294.38618648 C23.19925983 294.39037666 27.55908788 294.38829049 31.9189378 294.38520026 C36.61638675 294.38294507 41.31383186 294.38642641 46.01128006 294.38918018 C55.21916667 294.39363589 64.42704515 294.3926622 73.63493208 294.38976754 C81.11764819 294.38751232 88.60036203 294.38720151 96.08307838 294.38829136 C97.14667829 294.38844459 98.2102782 294.38859783 99.30610841 294.3887557 C101.46659742 294.38907542 103.62708644 294.38939963 105.78757545 294.38972829 C126.06621657 294.39258261 146.34485319 294.38929703 166.62349357 294.38392793 C184.03027977 294.37946186 201.43705929 294.38023429 218.84384537 294.38484669 C239.04356883 294.39019662 259.24328834 294.39230589 279.44301242 294.38923442 C281.59662449 294.38891587 283.75023657 294.3886015 285.90384865 294.38829136 C286.96353775 294.38813708 288.02322686 294.38798281 289.11502776 294.38782386 C296.58877555 294.38695982 304.06252083 294.38841919 311.53626823 294.39077091 C320.64448813 294.39357384 329.75269941 294.39282028 338.86091832 294.38749017 C343.509674 294.38485954 348.15841529 294.3838373 352.80717087 294.38713932 C357.06149747 294.39011548 361.31579634 294.38848733 365.57012042 294.38316177 C367.11050388 294.38204322 368.65088968 294.38261636 370.19127164 294.38503756 C372.28328444 294.38807396 374.375202 294.38496343 376.46720982 294.38031673 C378.21110429 294.38007321 378.21110429 294.38007321 379.99022895 294.37982476 C383.13915844 294.25662849 386.10165153 293.84447641 389.19418716 293.25447559 C389.19418716 292.59447559 389.19418716 291.93447559 389.19418716 291.25447559 C389.83356216 290.98635059 390.47293716 290.71822559 391.13168716 290.44197559 C393.52550403 289.36779807 393.52550403 289.36779807 394.19418716 286.25447559 C394.85418716 286.25447559 395.51418716 286.25447559 396.19418716 286.25447559 C397.92791418 282.78702157 397.34212048 278.76707471 397.34135818 274.94974232 C397.34687322 273.48450863 397.34687322 273.48450863 397.35249966 271.98967427 C397.363569 268.69553056 397.36738585 265.40141835 397.37118912 262.1072588 C397.37745133 259.75381844 397.38409791 257.40037907 397.39110184 255.0469408 C397.41035414 247.96870564 397.42093419 240.890474 397.42982963 233.81221917 C397.43421174 230.47934823 397.4395788 227.1464788 397.4448185 223.81360912 C397.46183275 212.73459452 397.47632651 201.65558091 397.48356724 190.57655525 C397.48547715 187.70072205 397.48739748 184.82488885 397.48935318 181.94905567 C397.48983692 181.2342753 397.49032066 180.51949493 397.49081906 179.78305455 C397.4991178 168.20631227 397.52445116 156.62967337 397.55693386 145.05297623 C397.59000821 133.16853661 397.60801639 121.28414951 397.61121148 109.39966363 C397.61337639 102.72654384 397.62256499 96.05355454 397.64767265 89.38047695 C397.67091234 83.10223448 397.67520295 76.82426333 397.66491127 70.54598904 C397.6644148 68.24134896 397.67076786 65.93669571 397.68446732 63.63209629 C397.70212397 60.48577989 397.69511007 57.34044371 397.68193436 54.19412708 C397.6929036 53.28205362 397.70387285 52.36998016 397.7151745 51.43026811 C397.64790001 44.77628381 396.22213821 40.28242664 391.38168716 35.44197559 C386.26679582 32.66532029 381.07549185 32.0042747 375.33413124 32 C374.34922705 31.99519028 374.34922705 31.99519028 373.3444258 31.9902834 C371.15284772 31.98200787 368.96154467 31.98789893 366.76996231 31.99377918 C365.17943442 31.9907574 363.58890799 31.98686778 361.99838412 31.98218662 C357.63422163 31.97190176 353.27014124 31.97408966 348.905972 31.97836721 C344.19701659 31.98083346 339.488081 31.97182166 334.77913284 31.96432972 C325.55741998 31.95157908 316.33573623 31.94978939 307.11401604 31.95212998 C299.62089621 31.95391246 292.12778522 31.95216502 284.63466644 31.94790554 C283.56854441 31.94731035 282.50242238 31.94671516 281.40399361 31.94610194 C279.23826801 31.9448902 277.0725424 31.94367607 274.9068168 31.94245956 C254.59718678 31.93158316 234.28757337 31.93374732 213.97794242 31.93984441 C195.38724755 31.94501682 176.79660502 31.93374973 158.2059205 31.91474619 C139.12315038 31.89538886 120.04040504 31.88710788 100.95762503 31.89086944 C90.2415028 31.89278428 79.52542515 31.89026618 68.80931091 31.8761549 C59.68942759 31.86426714 50.56961632 31.86280705 41.44973205 31.87494507 C36.79495463 31.88085137 32.14030918 31.88188493 27.48554039 31.86994267 C23.22703323 31.8591437 18.96876919 31.86211529 14.7102737 31.87620435 C13.16733568 31.87886782 11.62437897 31.8764334 10.08145921 31.86846849 C7.98819718 31.85841004 5.89578811 31.86674246 3.80256081 31.87974548 C2.6387153 31.87969047 1.47486979 31.87963545 0.27575624 31.87957877 C-4.93713449 32.51376744 -8.46920284 35.29997486 -11.80581284 39.25447559 Z " fill="#4D8F30" transform="translate(525.8058128356934,63.745524406433105)"/>
<path d="M0 0 C0.85142578 -0.01224609 1.70285156 -0.02449219 2.58007812 -0.03710938 C16.2651871 -0.06837771 28.36855458 4.75456528 38.41796875 14.25390625 C48.90386327 25.71200291 53.3648646 37.72595147 53.375 53 C53.38724609 53.95970703 53.39949219 54.91941406 53.41210938 55.90820312 C53.44320783 71.09461614 47.90535785 84.36707891 37.1875 95.1875 C22.98824548 107.32224256 7.25822396 109.5548963 -10.8125 108.1875 C-24.18383613 105.70983046 -35.89869777 98.85504719 -44.4140625 88.1796875 C-53.89742022 73.80920065 -56.02055661 56.17580099 -52.75 39.5 C-48.87701825 24.74228754 -40.59048553 14.14916791 -27.8125 6.1875 C-18.46290914 1.51270457 -10.34248367 0.00772404 0 0 Z " fill="#88BA1C" transform="translate(937.8125,570.8125)"/>
<path d="M0 0 C1.11375 0.268125 2.2275 0.53625 3.375 0.8125 C4.90025264 3.86300528 4.52063687 7.02965473 4.5 10.375 C4.49601196 11.54385742 4.49601196 11.54385742 4.49194336 12.73632812 C4.43808853 19.76608734 4.2078898 26.7881071 3.9375 33.8125 C3.87876709 35.36819702 3.87876709 35.36819702 3.81884766 36.95532227 C3.5545051 43.27067861 3.08285321 49.53127985 2.375 55.8125 C16.86089405 58.8810884 16.86089405 58.8810884 31.375 61.8125 C31.375 62.4725 31.375 63.1325 31.375 63.8125 C31.95507812 63.78929687 32.53515625 63.76609375 33.1328125 63.7421875 C37.98911166 63.62999577 41.80432395 63.93735085 46.375 65.8125 C47.28694105 69.37736048 47.64330444 71.20881501 46.125 74.625 C44.375 76.8125 44.375 76.8125 41.375 77.8125 C41.065625 78.740625 40.75625 79.66875 40.4375 80.625 C39.24299752 84.20850744 38.04617154 85.21552767 35.375 87.8125 C32.51164186 91.72801074 29.91549228 95.68827606 27.8125 100.0625 C26.13111327 103.27906591 23.96214254 105.29169444 21.375 107.8125 C20.07980005 109.97870544 20.07980005 109.97870544 19.375 111.8125 C18.715 111.8125 18.055 111.8125 17.375 111.8125 C17.08625 112.555 16.7975 113.2975 16.5 114.0625 C13.83214286 120.58392857 13.83214286 120.58392857 11.375 121.8125 C10.44633836 123.30117276 9.57794664 124.82804706 8.75 126.375 C8.08097656 127.61443359 8.08097656 127.61443359 7.3984375 128.87890625 C7.06070313 129.51699219 6.72296875 130.15507812 6.375 130.8125 C5.715 130.8125 5.055 130.8125 4.375 130.8125 C4.11589844 131.53308594 3.85679687 132.25367188 3.58984375 132.99609375 C2.32129894 135.93699667 0.80432095 138.27750935 -1.0625 140.875 C-1.95775391 142.12990234 -1.95775391 142.12990234 -2.87109375 143.41015625 C-3.99036214 144.94322989 -5.12803903 146.46314438 -6.2890625 147.96484375 C-7.75230923 149.81730098 -7.75230923 149.81730098 -8.5625 152.3125 C-9.80578656 155.23788015 -11.35119095 156.60365693 -13.625 158.8125 C-14.44825014 160.05544628 -15.26013693 161.30596916 -16.0625 162.5625 C-18.26504879 165.73716137 -18.26504879 165.73716137 -21.3125 166.375 C-23.625 165.8125 -23.625 165.8125 -25.625 163.8125 C-25.8110487 161.29295918 -25.85566266 158.89489006 -25.8125 156.375 C-25.80605469 155.58182373 -25.79960938 154.78864746 -25.79296875 153.97143555 C-25.62095447 139.24943176 -25.08897462 124.52765252 -24.625 109.8125 C-29.18767412 108.89582461 -33.75025031 107.98079222 -38.3203125 107.1015625 C-45.03622511 105.80121496 -51.72012185 104.39540488 -58.375 102.8125 C-59.05449707 102.65861816 -59.73399414 102.50473633 -60.43408203 102.34619141 C-63.91067892 101.49533774 -66.52826636 100.84024596 -68.625 97.8125 C-68.625 91.93093778 -64.04571027 86.51735232 -60.4375 82.1875 C-58.38908869 79.50337484 -57.52742998 77.04620744 -56.625 73.8125 C-55.965 73.8125 -55.305 73.8125 -54.625 73.8125 C-54.625 73.1525 -54.625 72.4925 -54.625 71.8125 C-53.965 71.8125 -53.305 71.8125 -52.625 71.8125 C-52.3775 71.27625 -52.13 70.74 -51.875 70.1875 C-50.625 67.8125 -50.625 67.8125 -48.625 64.875 C-46.58603112 61.9901965 -46.58603112 61.9901965 -45.625 59.1875 C-44.625 56.8125 -44.625 56.8125 -42.8125 55.0625 C-39.61612472 51.77479972 -37.7331858 47.85606948 -35.625 43.8125 C-34.965 43.8125 -34.305 43.8125 -33.625 43.8125 C-33.3775 43.090625 -33.13 42.36875 -32.875 41.625 C-31.50272017 38.53737038 -29.74724528 36.43409711 -27.625 33.8125 C-26.70823226 32.17541475 -25.79245544 30.53774525 -24.88671875 28.89453125 C-22.69461435 25.27721966 -20.10778653 21.94164329 -17.58984375 18.546875 C-15.85043859 16.12623164 -14.27783526 13.68197058 -12.75 11.125 C-11.698125 9.4853125 -11.698125 9.4853125 -10.625 7.8125 C-9.965 7.8125 -9.305 7.8125 -8.625 7.8125 C-8.356875 7.049375 -8.08875 6.28625 -7.8125 5.5 C-5.81759261 0.98520959 -5.17111025 -0.26747122 0 0 Z " fill="#FBC72D" transform="translate(736.625,130.1875)"/>
<path d="M0 0 C9.24 0 18.48 0 28 0 C28.33 16.5 28.66 33 29 50 C31.64 47.69 34.28 45.38 37 43 C46.80986936 36.27842285 59.19460368 35.54475662 70.6875 37.6875 C79.68092365 41.25093201 86.86799606 44.47415257 91.21484375 53.53125 C93.92433872 60.08803498 95.14927742 65.50441169 95.11352539 72.61425781 C95.11367142 73.37562042 95.11381744 74.13698303 95.1139679 74.92141724 C95.11327255 77.43201571 95.10549787 79.94253952 95.09765625 82.453125 C95.09579073 84.19618692 95.09436746 85.93924937 95.09336853 87.68231201 C95.08955394 92.26572116 95.07973267 96.84909851 95.06866455 101.43249512 C95.0584277 106.11124237 95.05386604 110.78999477 95.04882812 115.46875 C95.03810946 124.64584953 95.0205212 133.82291715 95 143 C85.76 143 76.52 143 67 143 C66.93941406 138.77058594 66.87882813 134.54117188 66.81640625 130.18359375 C66.76528298 126.76834767 66.71337964 123.35311539 66.66095734 119.9378891 C66.60619459 116.35648614 66.55274135 112.77507562 66.50268555 109.19360352 C66.45423817 105.73109847 66.40188993 102.26867069 66.34705925 98.80626106 C66.31736127 96.87083307 66.29149808 94.93534741 66.26576233 92.99986267 C66.1611226 86.59861131 65.97063388 80.20518269 65.62084961 73.81274414 C65.5569957 72.59841202 65.49314178 71.3840799 65.42735291 70.13294983 C64.7986679 65.5240223 63.61311987 63.87407262 60 61 C54.18345579 58.23252905 47.83377067 57.82184788 41.6484375 59.72265625 C36.67581829 62.02272544 33.34850285 64.75230887 31.19694519 69.93405151 C28.61198795 77.63736848 28.52408663 85.13745504 28.48828125 93.1953125 C28.471401 94.63835137 28.45324636 96.08137585 28.43388367 97.52438354 C28.38673992 101.2889353 28.35670186 105.05342865 28.33044434 108.81817627 C28.29516787 113.35312197 28.23825845 117.88784347 28.18505096 122.42260742 C28.10695558 129.28170819 28.05603516 136.14052401 28 143 C18.76 143 9.52 143 0 143 C0 95.81 0 48.62 0 0 Z " fill="#96BD20" transform="translate(773,534)"/>
<path d="M0 0 C1.01553955 0.00080566 2.0310791 0.00161133 3.07739258 0.00244141 C22.85197873 0.16278863 22.85197873 0.16278863 29.9375 4.1875 C29.9375 4.8475 29.9375 5.5075 29.9375 6.1875 C30.618125 6.3525 31.29875 6.5175 32 6.6875 C36.34356196 8.90548908 39.47738337 11.97369822 41.9375 16.1875 C44.30933184 24.14013097 44.20235608 32.19378571 44.17578125 40.41796875 C44.18182045 41.78022521 44.18943653 43.14247548 44.1985321 44.50471497 C44.23521804 50.23274384 44.25428851 55.96057691 44.24291992 61.6887207 C44.2369882 65.21488309 44.25570635 68.74025846 44.28880882 72.26626015 C44.30037315 74.22388478 44.28559371 76.18161043 44.26985168 78.13920593 C44.36082226 86.60940407 45.94901384 93.37662506 48.86613464 101.23457336 C49.9375 104.1875 49.9375 104.1875 49.9375 106.1875 C41.0275 106.1875 32.1175 106.1875 22.9375 106.1875 C19.9375 99.1875 19.9375 99.1875 19.9375 95.1875 C19.28265625 95.70699219 18.6278125 96.22648438 17.953125 96.76171875 C5.20056311 106.5062611 -5.69281939 109.82220222 -21.6484375 108.53027344 C-29.35457879 107.43607619 -36.21492846 103.24696443 -41.0625 97.1875 C-47.28964187 88.64741972 -48.30887228 80.48633398 -47.0625 70.1875 C-45.02045924 62.83615325 -40.45476795 57.27936579 -34.0625 53.1875 C-27.14315756 49.48600388 -19.93912591 47.77388008 -12.3125 46.125 C-10.67667969 45.76051758 -10.67667969 45.76051758 -9.0078125 45.38867188 C-6.811475 44.8992988 -4.61420708 44.4140823 -2.41601562 43.93310547 C2.1561708 42.91654626 6.71156928 41.83110531 11.26660156 40.74047852 C13.9375 40.1875 13.9375 40.1875 16.9375 40.1875 C16.74576631 32.87195283 16.74576631 32.87195283 14.25 26.125 C8.18790068 21.04594382 0.41465294 21.62741364 -7.0625 22.1875 C-10.24229895 22.70163269 -11.27188629 23.26895308 -14.0625 25.1875 C-16.04995252 28.05431131 -17.6195002 31.01556034 -19.0625 34.1875 C-27.47817099 33.6112919 -35.74198259 32.56977951 -44.0625 31.1875 C-42.68731961 21.86683288 -38.70064727 13.70041264 -31.1875 7.75 C-21.2152271 1.07609976 -11.78951202 -0.00966591 0 0 Z " fill="#AFC425" transform="translate(601.0625,570.8125)"/>
<path d="M0 0 C32.34 0 64.68 0 98 0 C98 7.92 98 15.84 98 24 C75.23 24 52.46 24 29 24 C29 35.22 29 46.44 29 58 C48.47 58 67.94 58 88 58 C88 65.92 88 73.84 88 82 C68.53 82 49.06 82 29 82 C29 102.13 29 122.26 29 143 C19.43 143 9.86 143 0 143 C0 95.81 0 48.62 0 0 Z " fill="#D1CD2C" transform="translate(394,534)"/>
<path d="M0 0 C0 0.66 0 1.32 0 2 C1.11375 2.1546875 1.11375 2.1546875 2.25 2.3125 C5.1973519 3.04933797 6.78383074 3.94799142 9 6 C9 6.66 9 7.32 9 8 C9.58394531 8.25265625 10.16789063 8.5053125 10.76953125 8.765625 C14.70958162 10.94610822 17.43064508 14.34881143 20 18 C20.9375 21.5 20.9375 21.5 21 24 C21.66 24 22.32 24 23 24 C26.4470203 35.63369352 26.28383032 49.33067441 23 61 C21.68 61.33 20.36 61.66 19 62 C18.93683594 62.87914062 18.87367188 63.75828125 18.80859375 64.6640625 C17.79901435 68.82918717 16.13818512 70.43611006 13.0625 73.375 C12.16660156 74.24898438 11.27070312 75.12296875 10.34765625 76.0234375 C8 78 8 78 6 78 C6 78.66 6 79.32 6 80 C-0.5 84 -0.5 84 -5 84 C-5 84.66 -5 85.32 -5 86 C-9.74865153 87.21611807 -14.38494433 87.14816693 -19.25 87.125 C-20.49136719 87.13080078 -20.49136719 87.13080078 -21.7578125 87.13671875 C-27.87330665 87.12669335 -27.87330665 87.12669335 -29 86 C-30.78405598 85.62807954 -32.57776915 85.30189705 -34.375 85 C-37.38236907 84.49215931 -40.10209163 83.96596946 -43 83 C-43 82.34 -43 81.68 -43 81 C-43.825 80.835 -44.65 80.67 -45.5 80.5 C-51.92426876 77.74674196 -56.913321 72.2513259 -59.9921875 65.98803711 C-60.69746231 64.59679371 -61.4580054 63.23283428 -62.25756836 61.89355469 C-66.15635234 55.02620786 -66.65449706 49.42200409 -66.375 41.625 C-66.36082031 40.55894531 -66.34664062 39.49289063 -66.33203125 38.39453125 C-66.17480082 30.06131851 -66.17480082 30.06131851 -65 26 C-64.34 26 -63.68 26 -63 26 C-62.896875 25.113125 -62.79375 24.22625 -62.6875 23.3125 C-61.98284093 19.9173245 -61.0445434 17.78057902 -59 15 C-58.34 15 -57.68 15 -57 15 C-56.74089844 14.40316406 -56.48179687 13.80632812 -56.21484375 13.19140625 C-54.90986856 10.83741563 -53.64525787 9.61714344 -51.5625 7.9375 C-49.76059657 6.47029137 -48.04552958 5.0468853 -46.42578125 3.37890625 C-44.51247772 1.52850585 -42.47673855 0.94351945 -40 0 C-39.154375 -0.515625 -38.30875 -1.03125 -37.4375 -1.5625 C-27.69988327 -7.30519705 -9.66510664 -4.83255332 0 0 Z " fill="#4E9032" transform="translate(890,109)"/>
<path d="M0 0 C1.23685547 -0.01160156 2.47371094 -0.02320313 3.74804688 -0.03515625 C17.94805054 0.00989929 28.15155349 3.10592914 38.35546875 13.2890625 C42.59590445 18.37758535 44.09576515 23.97233545 45.4375 30.375 C42.93302164 31.20982612 40.97035011 31.62248816 38.3828125 31.91015625 C37.60292969 31.99716797 36.82304688 32.08417969 36.01953125 32.17382812 C35.20871094 32.26083984 34.39789062 32.34785156 33.5625 32.4375 C32.75941406 32.52837891 31.95632813 32.61925781 31.12890625 32.71289062 C28.90000178 32.95707868 26.67041471 33.17130393 24.4375 33.375 C22.99503906 33.52195312 22.99503906 33.52195312 21.5234375 33.671875 C19.4375 33.375 19.4375 33.375 18.03125 31.73046875 C17.6703125 31.01503906 17.309375 30.29960938 16.9375 29.5625 C14.56370306 25.35068473 12.34732712 23.27325098 7.640625 21.8203125 C0.24229698 20.32490577 -8.44219897 20.78870232 -15.5625 23.375 C-17.82563679 25.25447452 -17.82563679 25.25447452 -18.0625 28.25 C-17.88220643 31.56462997 -17.88220643 31.56462997 -15.1015625 33.4375 C-11.14859852 35.8890866 -6.95890351 36.65177585 -2.4375 37.5 C-0.85059647 37.81020247 0.73538792 38.12515244 2.3203125 38.4453125 C3.01527832 38.57695801 3.71024414 38.70860352 4.42626953 38.84423828 C6.61913696 39.42293381 8.42836166 40.33516669 10.4375 41.375 C11.86665085 41.66899675 13.30603959 41.91551352 14.75 42.125 C26.62847749 44.42349417 37.53923093 48.89707712 45.4375 58.375 C48.38494365 63.06441597 48.95393931 67.18851031 48.875 72.625 C48.86452637 73.37789307 48.85405273 74.13078613 48.84326172 74.90649414 C48.5401064 84.2370527 46.11674406 89.9420675 39.625 96.75 C27.27904213 108.20002479 13.08335073 109.06349733 -3.20703125 108.65234375 C-17.01239166 108.06462217 -29.63447723 104.95727868 -39.5 94.625 C-43.52211504 89.58749807 -47.5625 82.93829214 -47.5625 76.375 C-44.20953509 75.86671557 -40.85496657 75.36988543 -37.5 74.875 C-36.55705078 74.73191406 -35.61410156 74.58882812 -34.64257812 74.44140625 C-29.55517758 73.69690861 -24.7037006 73.20386434 -19.5625 73.375 C-19.33175781 73.97828125 -19.10101562 74.5815625 -18.86328125 75.203125 C-16.44435378 81.13093144 -14.28400558 84.5734231 -8.3515625 87.4453125 C-0.91749542 89.92333486 8.11027109 89.45141975 15.3125 86.4375 C18.0830592 84.85039158 19.19237473 84.06643826 20.265625 81.0390625 C20.53893177 78.75910867 20.60691064 76.66204366 20.4375 74.375 C14.55958455 70.57164294 8.71239834 69.14243857 1.90234375 67.9375 C-0.73287706 67.33611839 -3.05725846 66.38250084 -5.5625 65.375 C-7.38912463 64.91028521 -9.2232269 64.47431527 -11.0625 64.0625 C-20.66131886 61.69534368 -30.9319735 59.16241524 -37.5625 51.375 C-38.14 50.70082031 -38.7175 50.02664063 -39.3125 49.33203125 C-44.72162134 41.85692607 -44.4530096 34.16196716 -43.5625 25.375 C-42.17121366 16.79540092 -36.95748333 10.95402057 -30.375 5.5625 C-21.41132558 -0.19528415 -10.27785767 -0.0967075 0 0 Z " fill="#A1C123" transform="translate(705.5625,570.625)"/>
<path d="M0 0 C2.89579195 2.62341548 4.75254567 5.25763702 6 9 C6.09449031 11.14614039 6.1279394 13.29514037 6.12939453 15.44335938 C6.13202301 16.41702202 6.13202301 16.41702202 6.13470459 17.41035461 C6.13910387 19.55484698 6.13619189 21.6992568 6.1328125 23.84375 C6.13348609 25.33443213 6.13445658 26.82511415 6.13571167 28.3157959 C6.13718603 31.43954515 6.13504246 34.56326579 6.13037109 37.68701172 C6.12467396 41.69199653 6.12795436 45.69691432 6.13394356 49.70189667 C6.13755621 52.77993271 6.13640734 55.85795286 6.13381577 58.93598938 C6.13314845 60.41278593 6.13396812 61.88958392 6.13629532 63.36637878 C6.13883336 65.42983833 6.13496498 67.49318918 6.12939453 69.55664062 C6.12859894 70.73117798 6.12780334 71.90571533 6.12698364 73.11584473 C6 76 6 76 5 79 C4.01 79 3.02 79 2 79 C1.67 81.64 1.34 84.28 1 87 C0.34 87 -0.32 87 -1 87 C-1.268125 87.763125 -1.53625 88.52625 -1.8125 89.3125 C-2.95134505 91.88988618 -3.81416671 93.26954864 -6 95 C-6.66 95 -7.32 95 -8 95 C-8 95.66 -8 96.32 -8 97 C-20.40257026 103.35253598 -20.40257026 103.35253598 -28.09350586 103.48339844 C-29.09988853 103.50574051 -29.09988853 103.50574051 -30.12660217 103.52853394 C-32.32277989 103.57197191 -34.51830904 103.59272481 -36.71484375 103.609375 C-37.4707184 103.61785713 -38.22659306 103.62633926 -39.005373 103.63507843 C-43.00222989 103.67987243 -46.99876683 103.70767804 -50.99584961 103.72070312 C-55.10687984 103.73717449 -59.21493703 103.80932533 -63.32503414 103.89461899 C-66.50371201 103.95069251 -69.68168073 103.96612418 -72.86081123 103.97071075 C-74.37550758 103.97974278 -75.89019614 104.00366983 -77.40440178 104.0432663 C-89.15806674 104.32880249 -89.15806674 104.32880249 -93.72341919 101.03527832 C-98.89738765 95.38079165 -100.26468203 91.02891794 -100.14453125 83.4921875 C-99.75490945 76.77384396 -96.65316319 72.58994086 -92 68 C-89.31900947 66.65950473 -87.26688794 66.8801948 -84.26513672 66.88647461 C-82.46349564 66.88658791 -82.46349564 66.88658791 -80.62545776 66.88670349 C-78.67230148 66.89444542 -78.67230148 66.89444542 -76.6796875 66.90234375 C-75.33733167 66.90420862 -73.99497516 66.9056322 -72.65261841 66.90663147 C-69.11804325 66.91045122 -65.58350913 66.92027688 -62.0489502 66.93133545 C-58.44279536 66.94156122 -54.8366339 66.94613159 -51.23046875 66.95117188 C-44.15362904 66.96189962 -37.0768172 66.97896955 -30 67 C-30.00222061 66.26750534 -30.00444122 65.53501068 -30.00672913 64.78031921 C-30.02676091 57.87938598 -30.0419889 50.97845708 -30.05181217 44.07750225 C-30.05703216 40.52960152 -30.0641138 36.9817248 -30.07543945 33.43383789 C-30.08837663 29.35562916 -30.09323552 25.27744567 -30.09765625 21.19921875 C-30.10281754 19.92414963 -30.10797882 18.64908051 -30.11329651 17.33537292 C-30.11337204 16.15437515 -30.11344757 14.97337738 -30.11352539 13.7565918 C-30.115746 12.71512497 -30.11796661 11.67365814 -30.12025452 10.60063171 C-30 8 -30 8 -29 5 C-28.34 5 -27.68 5 -27 5 C-26.7525 4.401875 -26.505 3.80375 -26.25 3.1875 C-24.38747592 -0.07191714 -22.33431599 -1.59229234 -18.75 -2.6875 C-11.9307194 -3.46241825 -6.06753324 -3.50049994 0 0 Z " fill="#4FB052" transform="translate(910,247)"/>
<path d="M0 0 C1.46686872 0.00560592 2.93374312 0.0098713 4.40061951 0.01286316 C8.23279751 0.02423374 12.06462608 0.0536321 15.89666748 0.0869751 C19.81843338 0.11784552 23.74025659 0.1314045 27.66210938 0.14648438 C35.33609558 0.17851075 43.00979542 0.22961067 50.68359375 0.29296875 C50.68359375 0.95296875 50.68359375 1.61296875 50.68359375 2.29296875 C52.04484375 2.41671875 52.04484375 2.41671875 53.43359375 2.54296875 C57.11841159 3.39331133 58.41094425 4.32104248 60.68359375 7.29296875 C60.68359375 8.28296875 60.68359375 9.27296875 60.68359375 10.29296875 C61.34359375 10.29296875 62.00359375 10.29296875 62.68359375 10.29296875 C63.66130568 13.22610455 63.81778386 15.17475869 63.80859375 18.23046875 C63.81246094 19.51244141 63.81246094 19.51244141 63.81640625 20.8203125 C63.62145709 24.44980707 63.48444178 26.45867872 60.90625 29.14453125 C60.19339844 29.72976562 59.48054687 30.315 58.74609375 30.91796875 C58.03582031 31.50835937 57.32554687 32.09875 56.59375 32.70703125 C55.96339844 33.23039062 55.33304688 33.75375 54.68359375 34.29296875 C53.69359375 35.28296875 53.69359375 35.28296875 52.68359375 36.29296875 C50.16525269 36.53347778 50.16525269 36.53347778 46.94873047 36.52001953 C45.74763641 36.51986847 44.54654236 36.51971741 43.30905151 36.51956177 C42.00694733 36.5092392 40.70484314 36.49891663 39.36328125 36.48828125 C38.02092702 36.48455151 36.67857008 36.48170436 35.33621216 36.47970581 C31.80157975 36.47206619 28.26711147 36.45241505 24.73254395 36.43029785 C21.12640605 36.4098464 17.52024166 36.4007056 13.9140625 36.390625 C6.8371724 36.36916935 -0.23960622 36.33502954 -7.31640625 36.29296875 C-7.31196503 36.99596603 -7.3075238 37.69896332 -7.302948 38.42326355 C-7.26282091 45.05866878 -7.23239629 51.69403999 -7.21278191 58.3295393 C-7.20235886 61.74066037 -7.18822687 65.15168092 -7.16552734 68.56274414 C-7.13957621 72.48712956 -7.1299212 76.41147471 -7.12109375 80.3359375 C-7.11077118 81.55693649 -7.10044861 82.77793549 -7.08981323 84.03593445 C-7.08958664 85.74714226 -7.08958664 85.74714226 -7.08935547 87.49291992 C-7.08491425 88.49441574 -7.08047302 89.49591156 -7.07589722 90.52775574 C-7.58874423 96.42412979 -10.05328278 99.34957954 -14.31640625 103.29296875 C-15.30640625 104.28296875 -15.30640625 104.28296875 -16.31640625 105.29296875 C-22.19761464 107.55497198 -29.70206709 106.7882306 -35.31640625 104.29296875 C-40.48348673 98.90477447 -42.42973047 94.42167168 -42.4934082 86.96069336 C-42.50624344 85.65180649 -42.51907867 84.34291962 -42.53230286 82.99436951 C-42.54047403 81.56135438 -42.54791704 80.12833493 -42.5546875 78.6953125 C-42.55876303 77.97136354 -42.56283855 77.24741459 -42.56703758 76.50152779 C-42.58789318 72.66451428 -42.60219317 68.82753642 -42.61157227 64.99047852 C-42.62259405 61.04872561 -42.65694538 57.10754388 -42.69674397 53.16599178 C-42.72304438 50.11769142 -42.73127623 47.06952388 -42.73485374 44.02112007 C-42.73969062 42.56960791 -42.75122081 41.1181005 -42.76989174 39.66670036 C-42.89267696 29.48323177 -42.22735135 20.32911438 -35.31640625 12.29296875 C-34.65640625 12.29296875 -33.99640625 12.29296875 -33.31640625 12.29296875 C-33.13078125 11.73609375 -32.94515625 11.17921875 -32.75390625 10.60546875 C-29.47793793 5.33543276 -23.85728881 2.7187034 -18.12771606 0.89511108 C-12.17432107 -0.38002093 -6.05867159 -0.06851361 0 0 Z " fill="#79BD4D" transform="translate(562.31640625,102.70703125)"/>
<path d="M0 0 C0 11.55 0 23.1 0 35 C5.94 35 11.88 35 18 35 C18 41.93 18 48.86 18 56 C12.06 56 6.12 56 0 56 C0.06289654 63.64106104 0.13828736 71.28180236 0.23571491 78.92249775 C0.28045382 82.47036279 0.31970171 86.01811208 0.34643555 89.56616211 C0.37740626 93.64466541 0.43219605 97.72254545 0.48828125 101.80078125 C0.49467117 103.07585037 0.5010611 104.35091949 0.50764465 105.66462708 C0.52743881 106.84562485 0.54723297 108.02662262 0.56762695 109.2434082 C0.58428154 110.80560844 0.58428154 110.80560844 0.60127258 112.39936829 C0.79314582 115.03123392 0.79314582 115.03123392 2.39665222 116.83927917 C4.50367416 118.36462775 5.79559806 118.3380342 8.375 118.25 C9.12523437 118.23453125 9.87546875 118.2190625 10.6484375 118.203125 C13.46093657 118.00401397 13.46093657 118.00401397 18 117 C18 124.26 18 131.52 18 139 C11.64018143 140.81709102 7.06310698 141.3658027 0.625 141.375 C-0.26960938 141.39949219 -1.16421875 141.42398438 -2.0859375 141.44921875 C-9.15972769 141.48006377 -15.52475042 140.17117648 -20.88623047 135.27880859 C-26.51078778 129.28246751 -27.3442402 122.86108389 -27.625 114.9375 C-27.66294678 114.000271 -27.70089355 113.06304199 -27.73999023 112.09741211 C-28.36880017 93.41419993 -28.07876104 74.69060181 -28 56 C-31.96 56 -35.92 56 -40 56 C-40 49.07 -40 42.14 -40 35 C-36.04 35 -32.08 35 -28 35 C-28 28.4 -28 21.8 -28 15 C-24.33607132 12.85973568 -20.67082417 10.72218489 -17.00146484 8.59130859 C-15.75316303 7.8653251 -14.50576135 7.13779158 -13.25927734 6.40869141 C-11.4694574 5.36213798 -9.67649488 4.32116617 -7.8828125 3.28125 C-6.80402832 2.65283203 -5.72524414 2.02441406 -4.61376953 1.37695312 C-2 0 -2 0 0 0 Z " fill="#87B91C" transform="translate(1037,538)"/>
<path d="M0 0 C9.24 0 18.48 0 28 0 C28 47.19 28 94.38 28 143 C18.76 143 9.52 143 0 143 C0 95.81 0 48.62 0 0 Z " fill="#C0C929" transform="translate(510,534)"/>
<path d="M0 0 C1.2848806 -0.00422974 1.2848806 -0.00422974 2.59571838 -0.00854492 C3.53242371 -0.00652069 4.46912903 -0.00449646 5.43421936 -0.00241089 C6.42309647 -0.00416321 7.41197357 -0.00591553 8.43081665 -0.00772095 C11.70678959 -0.01212998 14.98270874 -0.00920455 18.25868225 -0.00582886 C20.53167735 -0.00650222 22.80467238 -0.00747252 25.07766724 -0.00872803 C29.84496241 -0.01020376 34.61223886 -0.00805462 39.37953186 -0.00338745 C45.49413769 0.00230651 51.60869959 -0.00096786 57.72330379 -0.00695992 C62.41839937 -0.01057163 67.11348451 -0.00942406 71.8085804 -0.00683212 C74.06326363 -0.00616438 76.3179478 -0.00698596 78.57262993 -0.00931168 C81.7231332 -0.01184781 84.87356515 -0.00798379 88.02406311 -0.00241089 C88.9587442 -0.00443512 89.89342529 -0.00645935 90.85643005 -0.00854492 C91.71583694 -0.0057251 92.57524384 -0.00290527 93.46069336 0 C94.20529281 0.00037703 94.94989225 0.00075405 95.71705532 0.0011425 C97.85243662 0.13053435 99.74008769 0.54255821 101.7938385 1.12698364 C101.7938385 1.78698364 101.7938385 2.44698364 101.7938385 3.12698364 C102.4538385 3.12698364 103.1138385 3.12698364 103.7938385 3.12698364 C107.05383678 7.20795948 107.2824188 11.09325218 107.2313385 16.12698364 C107.25131897 16.82565552 107.27129944 17.52432739 107.29188538 18.24417114 C107.28846052 21.87452178 106.89341457 23.9680002 104.95399475 27.06448364 C101.9220388 29.95937106 99.50898053 30.25209238 95.48483276 30.24723816 C94.60563675 30.24861282 93.72644073 30.24998749 92.82060242 30.25140381 C91.37806595 30.24601089 91.37806595 30.24601089 89.90638733 30.24050903 C88.89157791 30.24065506 87.87676849 30.24080109 86.83120728 30.24095154 C83.47107315 30.2402539 80.11099421 30.23246842 76.75086975 30.22463989 C74.42345205 30.22277518 72.09603396 30.22135153 69.76861572 30.22035217 C63.63819803 30.21653116 57.50780397 30.20670438 51.37739563 30.19564819 C45.12363505 30.18542516 38.86987065 30.18085264 32.61610413 30.17581177 C20.34200519 30.16508177 8.06792381 30.1480103 -4.2061615 30.12698364 C-4.2061615 29.46698364 -4.2061615 28.80698364 -4.2061615 28.12698364 C-4.9692865 28.04448364 -5.7324115 27.96198364 -6.5186615 27.87698364 C-9.2061615 27.12698364 -9.2061615 27.12698364 -10.85069275 25.58010864 C-12.74566115 22.1505981 -12.64334886 18.94114185 -12.5811615 15.12698364 C-12.59276306 14.41542114 -12.60436462 13.70385864 -12.61631775 12.97073364 C-12.59823337 9.73965729 -12.39777782 7.46953796 -10.807724 4.62698364 C-9.2061615 3.12698364 -9.2061615 3.12698364 -7.2061615 3.12698364 C-7.2061615 2.46698364 -7.2061615 1.80698364 -7.2061615 1.12698364 C-4.45167097 0.20882013 -2.83652637 0.00143699 0 0 Z " fill="#4D8F30" transform="translate(549.2061614990234,285.8730163574219)"/>
<path d="M0 0 C0.99804007 -0.00467997 0.99804007 -0.00467997 2.01624256 -0.00945449 C4.25026223 -0.01744464 6.48401104 -0.01110698 8.71803284 -0.00482178 C10.3178778 -0.00753122 11.91772152 -0.01109189 13.51756287 -0.01544189 C17.86671965 -0.0245745 22.21578174 -0.02101787 26.56494021 -0.01468372 C31.11280498 -0.00962736 35.66066153 -0.01431424 40.20852661 -0.01745605 C47.84761514 -0.02109713 55.48666502 -0.01629328 63.12574768 -0.0067749 C71.96044528 0.00410603 80.79505055 0.00058727 89.6297459 -0.01042771 C97.21028129 -0.0195012 104.79078887 -0.02078545 112.37132794 -0.01555037 C116.9008616 -0.01243051 121.43035185 -0.01202171 125.95988274 -0.01862335 C130.21898473 -0.02439693 134.47796762 -0.02039969 138.73705673 -0.00883484 C140.30117024 -0.00618815 141.86529376 -0.0069535 143.42940331 -0.01136017 C145.56277181 -0.01681687 147.69575751 -0.0099802 149.82910156 0 C151.02353599 0.00075405 152.21797041 0.0015081 153.44859982 0.002285 C156.41443006 0.24868244 158.044036 0.58573325 160.4780426 2.25396729 C162.94738346 5.95797857 162.92732693 8.95984594 162.4780426 13.25396729 C161.4780426 15.75396729 161.4780426 15.75396729 160.4780426 17.25396729 C159.8180426 17.25396729 159.1580426 17.25396729 158.4780426 17.25396729 C158.4780426 17.91396729 158.4780426 18.57396729 158.4780426 19.25396729 C155.63129289 20.67734214 153.23337216 20.37666723 150.04942322 20.3742218 C149.04843139 20.37550344 149.04843139 20.37550344 148.02721751 20.37681097 C145.78081849 20.37846413 143.53449339 20.37294708 141.2881012 20.36749268 C139.6819153 20.36721074 138.07572928 20.36736866 136.46954346 20.36793518 C132.09995532 20.36822292 127.73039445 20.36233003 123.36081266 20.35536122 C118.79772803 20.34912373 114.23464281 20.34852357 109.67155457 20.34733582 C101.0265775 20.34422367 92.38161303 20.33601185 83.73664153 20.32598633 C73.89639715 20.31482157 64.05615218 20.30931382 54.21590304 20.30429089 C33.96994252 20.29382915 13.72399336 20.27623196 -6.5219574 20.25396729 C-6.5219574 19.59396729 -6.5219574 18.93396729 -6.5219574 18.25396729 C-7.3057074 18.19209229 -8.0894574 18.13021729 -8.8969574 18.06646729 C-11.5219574 17.25396729 -11.5219574 17.25396729 -12.8344574 15.06646729 C-13.60945385 11.89602725 -13.93661674 9.50213215 -13.5219574 6.25396729 C-9.54833017 1.32118865 -6.22110534 0.00392865 0 0 Z " fill="#4B8E2E" transform="translate(535.5219573974609,327.74603271484375)"/>
<path d="M0 0 C6.664462 5.11549524 10.34102043 11.27733057 12 19.53515625 C13.34478255 31.91847451 13.07685072 44.43739936 5.3203125 54.7734375 C1.18920146 59.20749668 -3.24109216 62.17989086 -9.3671875 62.96875 C-17.59047714 62.97790734 -23.40274006 62.58461185 -29.671875 57.0625 C-36.91864022 49.47492156 -39.24827283 39.41212527 -39.08203125 29.2109375 C-39.05496094 28.32792969 -39.02789063 27.44492187 -39 26.53515625 C-38.98324219 25.70371094 -38.96648438 24.87226562 -38.94921875 24.015625 C-38.4433827 14.83831372 -34.6756099 7.14595431 -27.87109375 0.94140625 C-19.60161553 -5.27365045 -8.65296057 -5.54716579 0 0 Z " fill="#F8FBF3" transform="translate(951,595.46484375)"/>
<path d="M0 0 C5.19921029 3.76942746 10.43651599 8.62204797 12.5 14.8125 C12.89261056 20.62861456 13.16170752 26.48908495 10.5 31.8125 C9.51 32.1425 8.52 32.4725 7.5 32.8125 C6.43283296 34.61182579 6.43283296 34.61182579 5.5 36.8125 C2.89622642 41.68042453 2.89622642 41.68042453 -0.5 42.8125 C-3.45401536 43.06124332 -6.41156767 43.04365464 -9.375 43.0625 C-10.17808594 43.083125 -10.98117187 43.10375 -11.80859375 43.125 C-17.48598059 43.16241276 -20.84765489 42.3273161 -25.08203125 38.3125 C-28.5 34.14583333 -28.5 34.14583333 -28.5 30.8125 C-29.82 30.1525 -31.14 29.4925 -32.5 28.8125 C-32.5 23.2025 -32.5 17.5925 -32.5 11.8125 C-31.84 11.8125 -31.18 11.8125 -30.5 11.8125 C-30.40074219 11.22726563 -30.30148437 10.64203125 -30.19921875 10.0390625 C-29.36602403 7.38587262 -28.26875273 6.14807117 -26.3125 4.1875 C-25.74144531 3.59710938 -25.17039062 3.00671875 -24.58203125 2.3984375 C-17.8952158 -2.69508421 -7.68051618 -2.60588942 0 0 Z " fill="#F2F6E5" transform="translate(879.5,130.1875)"/>
<path d="M0 0 C0.74988428 17.35148897 0.74988428 17.35148897 -4 23 C-8.6177518 27.6177518 -14.49273681 30.0667522 -21 30.4375 C-25.58247501 30.22100512 -29.33688705 28.7493563 -33 26 C-35.93383825 22.75268314 -36.97277263 19.78959373 -37.125 15.375 C-35.67053869 11.01161608 -33.78063302 9.54465684 -30 7 C-26.57082201 5.46702243 -23.21799032 4.50016869 -19.55078125 3.7109375 C-18.53822266 3.49179687 -17.52566406 3.27265625 -16.48242188 3.046875 C-15.43634766 2.82515625 -14.39027344 2.6034375 -13.3125 2.375 C-12.25482422 2.14554688 -11.19714844 1.91609375 -10.10742188 1.6796875 C-2.28387742 0 -2.28387742 0 0 0 Z " fill="#F3F7E5" transform="translate(618,630)"/>
<path d="M0 0 C0.99 0.66 1.98 1.32 3 2 C3.33 1.34 3.66 0.68 4 0 C5.65 0 7.3 0 9 0 C9.12406007 4.03825066 9.21455045 8.07575638 9.2746582 12.11547852 C9.29972617 13.48807102 9.33379082 14.86053102 9.37719727 16.23266602 C9.43817531 18.21050696 9.46361009 20.18934184 9.48828125 22.16796875 C9.51446533 23.35672607 9.54064941 24.5454834 9.56762695 25.77026367 C8.83335139 29.94821267 7.26041514 31.37950462 4 34 C0.38069302 35.20643566 -2.19231005 35.32268559 -6 35 C-9.4375 33 -9.4375 33 -12 31 C-11.67 30.01 -11.34 29.02 -11 28 C-6.125 28.875 -6.125 28.875 -5 30 C-2.04182893 30.25005386 -2.04182893 30.25005386 1 30 C3.34973818 28.10244856 3.34973818 28.10244856 3.125 24.875 C3.08375 23.92625 3.0425 22.9775 3 22 C2.484375 22.515625 1.96875 23.03125 1.4375 23.5625 C-1 25 -1 25 -4.5 24.9375 C-8.26364588 23.92938057 -9.62413219 23.01552452 -12 20 C-13.96143223 16.07713554 -13.34690111 11.28670656 -13 7 C-11.7402794 3.91368454 -10.84552001 2.61227311 -8.1875 0.6875 C-5.32514352 -0.21209775 -2.98365243 -0.25392787 0 0 Z " fill="#72717C" transform="translate(1124,754)"/>
<path d="M0 0 C0.99 0.66 1.98 1.32 3 2 C3.33 1.34 3.66 0.68 4 0 C5.65 0 7.3 0 9 0 C9.12406007 4.03825066 9.21455045 8.07575638 9.2746582 12.11547852 C9.29972617 13.48807102 9.33379082 14.86053102 9.37719727 16.23266602 C9.43817531 18.21050696 9.46361009 20.18934184 9.48828125 22.16796875 C9.51446533 23.35672607 9.54064941 24.5454834 9.56762695 25.77026367 C8.83335139 29.94821267 7.26041514 31.37950462 4 34 C0.38069302 35.20643566 -2.19231005 35.32268559 -6 35 C-9.4375 33 -9.4375 33 -12 31 C-11.67 30.01 -11.34 29.02 -11 28 C-6.125 28.875 -6.125 28.875 -5 30 C-2.04182893 30.25005386 -2.04182893 30.25005386 1 30 C3.34973818 28.10244856 3.34973818 28.10244856 3.125 24.875 C3.08375 23.92625 3.0425 22.9775 3 22 C2.484375 22.515625 1.96875 23.03125 1.4375 23.5625 C-1 25 -1 25 -4.5 24.9375 C-8.26364588 23.92938057 -9.62413219 23.01552452 -12 20 C-13.96143223 16.07713554 -13.34690111 11.28670656 -13 7 C-11.7402794 3.91368454 -10.84552001 2.61227311 -8.1875 0.6875 C-5.32514352 -0.21209775 -2.98365243 -0.25392787 0 0 Z " fill="#72717C" transform="translate(433,754)"/>
<path d="M0 0 C15 0 15 0 21 3 C23.48025977 6.72038965 23.41669436 9.69415832 23 14 C22.25 16.4375 22.25 16.4375 21 18 C19.68 18.33 18.36 18.66 17 19 C20.465 25.93 20.465 25.93 24 33 C22.02 33 20.04 33 18 33 C17.64808594 32.21753906 17.29617188 31.43507813 16.93359375 30.62890625 C14.49330654 24.94188753 14.49330654 24.94188753 10.04296875 21.046875 C7.92854386 20.72992304 7.92854386 20.72992304 5 21 C5 24.96 5 28.92 5 33 C3.35 33 1.7 33 0 33 C0 22.11 0 11.22 0 0 Z " fill="#706E78" transform="translate(251,746)"/>
<path d="M0 0 C1.65 0 3.3 0 5 0 C5.33 0.99 5.66 1.98 6 3 C6.37125 2.505 6.7425 2.01 7.125 1.5 C9 0 9 0 11.8125 -0.4375 C16.38617094 0.19025876 19.51332262 2.10786515 22.375 5.75 C23.74188923 10.67080121 23.53521802 14.64921167 21.6875 19.3125 C20.20799083 21.66875534 19.14294656 23.27567556 17 25 C14.80859375 25.36328125 14.80859375 25.36328125 12.4375 25.3125 C11.65246094 25.30863281 10.86742187 25.30476562 10.05859375 25.30078125 C8 25 8 25 6 23 C5.67 26.63 5.34 30.26 5 34 C3.35 34 1.7 34 0 34 C0 22.78 0 11.56 0 0 Z " fill="#726E76" transform="translate(807,754)"/>
<path d="M0 0 C1.65 0 3.3 0 5 0 C5.33 0.66 5.66 1.32 6 2 C6.99 1.34 7.98 0.68 9 0 C13.64367999 -0.50474782 16.26712024 0.20034018 20 3 C22.28219901 6.42329851 22.29741163 7.84137668 22.3125 11.875 C22.32925781 12.90367187 22.34601562 13.93234375 22.36328125 14.9921875 C21.83743659 19.34595509 20.05903755 21.94096245 17 25 C14.90625 25.265625 14.90625 25.265625 12.5 25.25 C11.7059375 25.25515625 10.911875 25.2603125 10.09375 25.265625 C8 25 8 25 6 23 C5.67 26.63 5.34 30.26 5 34 C3.35 34 1.7 34 0 34 C0 22.78 0 11.56 0 0 Z " fill="#726E76" transform="translate(835,754)"/>
<path d="M0 0 C1.65 0 3.3 0 5 0 C5.33 0.66 5.66 1.32 6 2 C6.99 1.34 7.98 0.68 9 0 C13.64367999 -0.50474782 16.26712024 0.20034018 20 3 C22.28219901 6.42329851 22.29741163 7.84137668 22.3125 11.875 C22.32925781 12.90367187 22.34601563 13.93234375 22.36328125 14.9921875 C21.83743659 19.34595509 20.05903755 21.94096245 17 25 C14.90625 25.265625 14.90625 25.265625 12.5 25.25 C11.7059375 25.25515625 10.911875 25.2603125 10.09375 25.265625 C8 25 8 25 6 23 C5.67 26.63 5.34 30.26 5 34 C3.35 34 1.7 34 0 34 C0 22.78 0 11.56 0 0 Z " fill="#726E77" transform="translate(305,754)"/>
<path d="M0 0 C1.65 0 3.3 0 5 0 C5 10.89 5 21.78 5 33 C3.35 33 1.7 33 0 33 C-0.33 32.34 -0.66 31.68 -1 31 C-1.66 31.66 -2.32 32.32 -3 33 C-6.08271636 33.62986739 -8.91040874 33.56997632 -12 33 C-15.01764934 30.84453618 -15.76607249 30.29440934 -17 27 C-17.74791217 22.06748831 -18.43629657 16.59272653 -15.9375 12.08203125 C-13.24430979 9.3487638 -10.84454156 8.05390691 -7.0625 7.8125 C-4 8 -4 8 -1 10 C-0.67 6.7 -0.34 3.4 0 0 Z " fill="#706E76" transform="translate(695,746)"/>
<path d="M0 0 C1.32 0 2.64 0 4 0 C4 10.89 4 21.78 4 33 C2.68 33 1.36 33 0 33 C-0.33 32.01 -0.66 31.02 -1 30 C-1.33 30.495 -1.66 30.99 -2 31.5 C-4.58791639 33.44093729 -6.81092275 33.53723291 -9.99609375 33.42578125 C-13.39347624 32.70392025 -14.95214337 30.66841924 -17 28 C-18.45053871 23.64838388 -18.6490053 19.54303712 -18 15 C-16.3251866 11.87534814 -14.21491615 9.60745808 -11 8 C-6.0489284 7.56947203 -5.21377818 7.83966637 -1 11 C-0.67 7.37 -0.34 3.74 0 0 Z " fill="#6E6B70" transform="translate(361,746)"/>
<path d="M0 0 C2.70552388 2.19823815 4.44778333 3.89556667 6 7 C6.37414872 12.61223087 6.16077934 16.14594602 3 21 C-0.75938413 24.41688059 -3.65819581 24.56387431 -8.5859375 24.42578125 C-12.28723924 23.77296266 -13.85425264 21.97635924 -16 19 C-17.35609289 14.93172134 -17.5298986 11.25370654 -17 7 C-13.0681121 -0.72335123 -8.09709567 -2.28046545 0 0 Z " fill="#706D75" transform="translate(1012,755)"/>
<path d="M0 0 C3.71030698 1.68650317 5.87853426 3.53991926 8 7 C8.82994514 12.43576681 8.94121017 17.39994272 6.125 22.1875 C2.32653433 25.42736778 -0.6578709 25.33118176 -5.515625 25.2890625 C-9.00210977 24.88340232 -10.70043595 23.59628199 -13 21 C-14.54462213 16.36613361 -14.63442261 11.83402446 -14 7 C-10.76112356 0.75186896 -6.72233992 -0.45575186 0 0 Z " fill="#716E75" transform="translate(665,754)"/>
<path d="M0 0 C1.65 0 3.3 0 5 0 C5.33 0.66 5.66 1.32 6 2 C6.99 1.34 7.98 0.68 9 0 C13.15869464 0.29704962 15.50407222 0.66938148 19 3 C19.53625 2.505 20.0725 2.01 20.625 1.5 C23.74008151 -0.4674199 25.37170989 -0.5923739 29 0 C31.93015518 2.0691008 33.76381186 3.652533 34.40063477 7.28564453 C34.49216823 9.97759515 34.43609353 12.62196398 34.3125 15.3125 C34.28994141 16.24384766 34.26738281 17.17519531 34.24414062 18.13476562 C34.18542078 20.4248396 34.10336858 22.71157875 34 25 C32.35 25 30.7 25 29 25 C28.505 15.1 28.505 15.1 28 5 C26.02 5 24.04 5 22 5 C19.64641749 7.35358251 19.72128096 7.92968394 19.5859375 11.1328125 C19.54726562 11.93847656 19.50859375 12.74414062 19.46875 13.57421875 C19.42234375 14.83685547 19.42234375 14.83685547 19.375 16.125 C19.33632812 16.97449219 19.29765625 17.82398438 19.2578125 18.69921875 C19.16343506 20.79911684 19.08062414 22.89952891 19 25 C17.35 25 15.7 25 14 25 C13.67 18.73 13.34 12.46 13 6 C11.35 5.67 9.7 5.34 8 5 C5.64641749 7.35358251 5.72128096 7.92968394 5.5859375 11.1328125 C5.54726562 11.93847656 5.50859375 12.74414062 5.46875 13.57421875 C5.4378125 14.41597656 5.406875 15.25773438 5.375 16.125 C5.33632812 16.97449219 5.29765625 17.82398438 5.2578125 18.69921875 C5.16343506 20.79911684 5.08062414 22.89952891 5 25 C3.35 25 1.7 25 0 25 C0 16.75 0 8.5 0 0 Z " fill="#787073" transform="translate(1046,754)"/>
<path d="M0 0 C1.6875 1.1875 1.6875 1.1875 3.6875 4.1875 C3.91455078 6.36401367 3.91455078 6.36401367 3.8828125 8.85546875 C3.87636719 9.74814453 3.86992188 10.64082031 3.86328125 11.56054688 C3.84652344 12.48931641 3.82976563 13.41808594 3.8125 14.375 C3.80347656 15.31537109 3.79445313 16.25574219 3.78515625 17.22460938 C3.76159056 19.54582968 3.72869116 21.86653644 3.6875 24.1875 C2.0375 24.1875 0.3875 24.1875 -1.3125 24.1875 C-1.6425 23.5275 -1.9725 22.8675 -2.3125 22.1875 C-3.01375 22.703125 -3.715 23.21875 -4.4375 23.75 C-7.3125 25.1875 -7.3125 25.1875 -10.375 25.1875 C-14.09938455 23.91962441 -15.32365897 22.55323097 -17.3125 19.1875 C-17.875 16.625 -17.875 16.625 -17.3125 14.1875 C-15.00841994 11.32726268 -13.14522802 10.32784742 -9.53125 9.71875 C-6.78931458 9.46434362 -4.06419821 9.28388172 -1.3125 9.1875 C-1.9725 7.5375 -2.6325 5.8875 -3.3125 4.1875 C-7.34242782 4.74062735 -11.33272924 5.3433062 -15.3125 6.1875 C-15.00861836 3.24997746 -14.50580344 2.34669107 -12.1875 0.4375 C-7.99575905 -1.38499607 -4.32885727 -1.52094985 0 0 Z " fill="#716F76" transform="translate(561.3125,754.8125)"/>
<path d="M0 0 C1.6875 1.1875 1.6875 1.1875 3.6875 4.1875 C3.91455078 6.36401367 3.91455078 6.36401367 3.8828125 8.85546875 C3.87636719 9.74814453 3.86992187 10.64082031 3.86328125 11.56054688 C3.84652344 12.48931641 3.82976562 13.41808594 3.8125 14.375 C3.80347656 15.31537109 3.79445313 16.25574219 3.78515625 17.22460938 C3.76159056 19.54582968 3.72869116 21.86653644 3.6875 24.1875 C2.0375 24.1875 0.3875 24.1875 -1.3125 24.1875 C-1.6425 23.5275 -1.9725 22.8675 -2.3125 22.1875 C-3.01375 22.703125 -3.715 23.21875 -4.4375 23.75 C-7.3125 25.1875 -7.3125 25.1875 -10.375 25.1875 C-14.09938455 23.91962441 -15.32365897 22.55323097 -17.3125 19.1875 C-17.875 16.625 -17.875 16.625 -17.3125 14.1875 C-15.00841994 11.32726268 -13.14522802 10.32784742 -9.53125 9.71875 C-6.78931458 9.46434362 -4.06419821 9.28388172 -1.3125 9.1875 C-1.9725 7.5375 -2.6325 5.8875 -3.3125 4.1875 C-7.34242782 4.74062735 -11.33272924 5.3433062 -15.3125 6.1875 C-15.00861836 3.24997746 -14.50580344 2.34669107 -12.1875 0.4375 C-7.99575905 -1.38499607 -4.32885727 -1.52094985 0 0 Z " fill="#716F76" transform="translate(295.3125,754.8125)"/>
<path d="M0 0 C2.31279611 1.15639806 4.17409828 2.17409828 6 4 C6.08685603 5.56172745 6.10702219 7.12729344 6.09765625 8.69140625 C6.09443359 9.63564453 6.09121094 10.57988281 6.08789062 11.55273438 C6.07951172 12.54595703 6.07113281 13.53917969 6.0625 14.5625 C6.05798828 15.55958984 6.05347656 16.55667969 6.04882812 17.58398438 C6.03700007 20.05604849 6.02051849 22.52799518 6 25 C4.68 25 3.36 25 2 25 C1.67 24.34 1.34 23.68 1 23 C0.34 23.66 -0.32 24.32 -1 25 C-5.26545908 25.70816502 -8.87825567 25.71135006 -12.5625 23.375 C-14.45334615 20.25099332 -14.67314636 18.59011393 -14 15 C-11.74589864 12.21994166 -9.96339044 11.17502819 -6.44140625 10.53515625 C-3.95817238 10.27802707 -1.49423419 10.09686346 1 10 C1 8.35 1 6.7 1 5 C-2.41656024 4.83322718 -2.41656024 4.83322718 -6 5 C-6.66 5.66 -7.32 6.32 -8 7 C-10.625 7.125 -10.625 7.125 -13 7 C-12.69611836 4.06247746 -12.19330344 3.15919107 -9.875 1.25 C-6.2901772 -0.30861861 -3.87882048 -0.41558791 0 0 Z " fill="#726F73" transform="translate(1099,754)"/>
<path d="M0 0 C2.61854734 1.79798873 3.34165855 3.11127618 5 6 C5 8.31 5 10.62 5 13 C-0.61 13 -6.22 13 -12 13 C-10.52360997 18.06008639 -10.52360997 18.06008639 -7 20 C-3.67759676 19.6758631 -2.39223697 19.39223697 0 17 C2.625 17.375 2.625 17.375 5 18 C2.25 22.875 2.25 22.875 0 24 C-5.44481107 24.61374682 -9.61588533 25.02424485 -14.125 21.6875 C-17.38392832 17.0163694 -17.68966948 12.53625092 -17 7 C-13.11416299 -0.63289413 -8.04432654 -2.43333721 0 0 Z " fill="#706D73" transform="translate(518,755)"/>
<path d="M0 0 C3.4643441 1.76485454 5.45655254 3.03661587 7.375 6.4375 C8 9 8 9 8 14 C2.39 14 -3.22 14 -9 14 C-8.67 15.98 -8.34 17.96 -8 20 C-4.68815293 20.77131906 -4.68815293 20.77131906 -1 21 C1.17032476 19.56009377 1.17032476 19.56009377 3 18 C5.25 18.3125 5.25 18.3125 7 19 C5.84826645 21.46800047 4.95216435 23.04783565 3 25 C-0.71184809 25.56783505 -4.28629102 25.54124763 -8 25 C-10.89683868 22.7984026 -12.39297231 21.21405538 -14 18 C-15.03037808 8.99155166 -15.03037808 8.99155166 -12.953125 4.9765625 C-8.96123062 0.16280751 -6.12369696 -0.51030808 0 0 Z " fill="#6E6D74" transform="translate(876,754)"/>
<path d="M0 0 C3.4643441 1.76485454 5.45655254 3.03661587 7.375 6.4375 C8 9 8 9 8 14 C2.39 14 -3.22 14 -9 14 C-8.67 15.98 -8.34 17.96 -8 20 C-4.68815293 20.77131906 -4.68815293 20.77131906 -1 21 C1.17032476 19.56009377 1.17032476 19.56009377 3 18 C5.25 18.3125 5.25 18.3125 7 19 C5.84826645 21.46800047 4.95216435 23.04783565 3 25 C-0.71184809 25.56783505 -4.28629102 25.54124763 -8 25 C-10.89683868 22.7984026 -12.39297231 21.21405538 -14 18 C-15.03037808 8.99155166 -15.03037808 8.99155166 -12.953125 4.9765625 C-8.96123062 0.16280751 -6.12369696 -0.51030808 0 0 Z " fill="#6E6D74" transform="translate(720,754)"/>
<path d="M0 0 C3.11141288 1.6437653 5.28893717 3.03036886 7.375 5.875 C8 8 8 8 8 14 C2.06 14 -3.88 14 -10 14 C-9.01 15.98 -8.02 17.96 -7 20 C-2.9899066 20.17864631 -2.9899066 20.17864631 1 20 C1.66 19.34 2.32 18.68 3 18 C5.125 18.375 5.125 18.375 7 19 C5.63016497 22.16115776 5.0109362 22.9927092 2 25 C-2.88516144 25.71207438 -6.8100735 25.72852643 -11.0625 23.125 C-14.76311696 19.06625882 -14.38492094 15.31603482 -14.359375 9.99609375 C-13.82285181 5.52312326 -12.3330708 3.93627666 -9 1 C-5.89046621 -0.5547669 -3.43733239 -0.28644437 0 0 Z " fill="#6E6D74" transform="translate(601,754)"/>
<path d="M0 0 C3.11141288 1.6437653 5.28893717 3.03036886 7.375 5.875 C8 8 8 8 8 14 C2.06 14 -3.88 14 -10 14 C-9.01 15.98 -8.02 17.96 -7 20 C-0.71578798 20.27752243 -0.71578798 20.27752243 5 18 C5.66 18.33 6.32 18.66 7 19 C5.63016497 22.16115776 5.0109362 22.9927092 2 25 C-2.88516144 25.71207438 -6.8100735 25.72852643 -11.0625 23.125 C-14.76311696 19.06625882 -14.38492094 15.31603482 -14.359375 9.99609375 C-13.82285181 5.52312326 -12.3330708 3.93627666 -9 1 C-5.89046621 -0.5547669 -3.43733239 -0.28644437 0 0 Z " fill="#6E6D74" transform="translate(1153,754)"/>
<path d="M0 0 C3.11141288 1.6437653 5.28893717 3.03036886 7.375 5.875 C8 8 8 8 8 14 C2.06 14 -3.88 14 -10 14 C-9.01 15.98 -8.02 17.96 -7 20 C-0.71578798 20.27752243 -0.71578798 20.27752243 5 18 C5.66 18.33 6.32 18.66 7 19 C5.63016497 22.16115776 5.0109362 22.9927092 2 25 C-2.88516144 25.71207438 -6.8100735 25.72852643 -11.0625 23.125 C-14.76311696 19.06625882 -14.38492094 15.31603482 -14.359375 9.99609375 C-13.82285181 5.52312326 -12.3330708 3.93627666 -9 1 C-5.89046621 -0.5547669 -3.43733239 -0.28644437 0 0 Z " fill="#6E6D74" transform="translate(462,754)"/>
<path d="M0 0 C1.65 0 3.3 0 5 0 C6.98 5.61 8.96 11.22 11 17 C12.98 11.39 14.96 5.78 17 0 C18.65 0 20.3 0 22 0 C21.08053084 6.40376267 18.94629144 12.08950927 16.6875 18.125 C16.29626953 19.20910156 15.90503906 20.29320312 15.50195312 21.41015625 C15.11330078 22.45300781 14.72464844 23.49585938 14.32421875 24.5703125 C13.97447998 25.51664551 13.62474121 26.46297852 13.2644043 27.43798828 C11.86173131 30.2801683 10.45335157 32.00157647 8 34 C4.75 34.25 4.75 34.25 2 34 C2 32.68 2 31.36 2 30 C3.65 29.34 5.3 28.68 7 28 C6.74544806 20.87254562 4.71284751 15.0466202 2.08349609 8.49804688 C0.89176213 5.50968914 0 3.25048177 0 0 Z " fill="#737077" transform="translate(382,754)"/>
<path d="M0 0 C1.65 0 3.3 0 5 0 C5.33 0.66 5.66 1.32 6 2 C6.99 1.34 7.98 0.68 9 0 C12.8973724 -0.50835292 14.50556726 -0.32962183 17.8125 1.875 C20.019016 4.01847268 20.93801912 4.92379867 21.11352539 7.97119141 C21.10828857 8.75671387 21.10305176 9.54223633 21.09765625 10.3515625 C21.09443359 11.20234375 21.09121094 12.053125 21.08789062 12.9296875 C21.07951172 13.81914063 21.07113281 14.70859375 21.0625 15.625 C21.05798828 16.5221875 21.05347656 17.419375 21.04882812 18.34375 C21.03702591 20.56256648 21.02056155 22.78125018 21 25 C19.35 25 17.7 25 16 25 C15.67 19.06 15.34 13.12 15 7 C11.40846086 4.72988878 11.40846086 4.72988878 8.8125 5.3125 C7.0080743 5.85513747 7.0080743 5.85513747 6 7 C5.84417697 8.34015221 5.74955858 9.68758903 5.68359375 11.03515625 C5.64169922 11.84404297 5.59980469 12.65292969 5.55664062 13.48632812 C5.51732422 14.33646484 5.47800781 15.18660156 5.4375 16.0625 C5.39431641 16.91650391 5.35113281 17.77050781 5.30664062 18.65039062 C5.20023298 20.76672037 5.09958269 22.88333813 5 25 C3.35 25 1.7 25 0 25 C0 16.75 0 8.5 0 0 Z " fill="#76747F" transform="translate(475,754)"/>
<path d="M0 0 C1.65 0 3.3 0 5 0 C5.33 0.66 5.66 1.32 6 2 C6.99 1.34 7.98 0.68 9 0 C12.85833276 -0.50326079 14.50857943 -0.31669325 17.8125 1.8125 C20.16938807 4.16938807 20.9238764 5.66366252 21.11352539 8.99291992 C21.10828857 9.73131104 21.10305176 10.46970215 21.09765625 11.23046875 C21.09443359 12.03291016 21.09121094 12.83535156 21.08789062 13.66210938 C21.07951172 14.49548828 21.07113281 15.32886719 21.0625 16.1875 C21.05798828 17.03248047 21.05347656 17.87746094 21.04882812 18.74804688 C21.03705403 20.83206155 21.0191189 22.91603977 21 25 C19.35 25 17.7 25 16 25 C15.95101562 23.72382812 15.90203125 22.44765625 15.8515625 21.1328125 C15.77653809 19.46351928 15.70099012 17.79424954 15.625 16.125 C15.5940625 15.28324219 15.563125 14.44148437 15.53125 13.57421875 C15.49257813 12.76855469 15.45390625 11.96289062 15.4140625 11.1328125 C15.3826416 10.38918457 15.3512207 9.64555664 15.31884766 8.87939453 C15.14580449 6.75989026 15.14580449 6.75989026 13 5 C9.17435335 5.18757062 9.17435335 5.18757062 6 7 C5.84417697 8.34015221 5.74955858 9.68758903 5.68359375 11.03515625 C5.64169922 11.84404297 5.59980469 12.65292969 5.55664062 13.48632812 C5.51732422 14.33646484 5.47800781 15.18660156 5.4375 16.0625 C5.39431641 16.91650391 5.35113281 17.77050781 5.30664062 18.65039062 C5.20023298 20.76672037 5.09958269 22.88333813 5 25 C3.35 25 1.7 25 0 25 C0 16.75 0 8.5 0 0 Z " fill="#726E78" transform="translate(769,754)"/>
<path d="M0 0 C1.32 0 2.64 0 4 0 C4.33 0.99 4.66 1.98 5 3 C5.53625 2.505 6.0725 2.01 6.625 1.5 C9.74008151 -0.4674199 11.37170989 -0.5923739 15 0 C17.93015518 2.0691008 19.76381186 3.652533 20.40063477 7.28564453 C20.49216823 9.97759515 20.43609353 12.62196398 20.3125 15.3125 C20.28994141 16.24384766 20.26738281 17.17519531 20.24414062 18.13476562 C20.18542078 20.4248396 20.10336858 22.71157875 20 25 C18.35 25 16.7 25 15 25 C14.67 18.73 14.34 12.46 14 6 C11.03 5.505 11.03 5.505 8 5 C5.64641749 7.35358251 5.72128096 7.92968394 5.5859375 11.1328125 C5.54726563 11.93847656 5.50859375 12.74414062 5.46875 13.57421875 C5.4378125 14.41597656 5.406875 15.25773438 5.375 16.125 C5.33632813 16.97449219 5.29765625 17.82398438 5.2578125 18.69921875 C5.16343506 20.79911684 5.08062414 22.89952891 5 25 C3.35 25 1.7 25 0 25 C0 16.75 0 8.5 0 0 Z " fill="#787275" transform="translate(953,754)"/>
<path d="M0 0 C0.33 0 0.66 0 1 0 C1 81.18 1 162.36 1 246 C1.66 246 2.32 246 3 246 C3.33 250.29 3.66 254.58 4 259 C-0.27799223 254.72200777 -0.23246534 249.37539446 -0.25816262 243.65606034 C-0.25233693 242.69690936 -0.24651125 241.73775839 -0.24050903 240.74954224 C-0.24221788 239.71944404 -0.24392673 238.68934585 -0.24568737 237.62803257 C-0.24898045 234.17789486 -0.23798139 230.72795181 -0.22705078 227.27783203 C-0.22648663 224.80407211 -0.22680331 222.33031185 -0.22793579 219.85655212 C-0.22839116 214.53149032 -0.22271994 209.20648905 -0.21146011 203.88144302 C-0.19519103 196.18237467 -0.18999567 188.48332999 -0.18748413 180.78424631 C-0.18310924 168.29234867 -0.16980572 155.80047719 -0.15087891 143.30859375 C-0.13251478 131.17545706 -0.11836088 119.04232748 -0.10986328 106.90917969 C-0.10933783 106.16102014 -0.10881239 105.41286059 -0.10827102 104.64202954 C-0.1056609 100.88865151 -0.1031335 97.13527342 -0.10064721 93.3818953 C-0.07992112 62.25457785 -0.04455229 31.1272929 0 0 Z " fill="#D8E5CA" transform="translate(479,102)"/>
<path d="M0 0 C3 1.8125 3 1.8125 5 4 C5 4.99 5 5.98 5 7 C0.125 6.125 0.125 6.125 -1 5 C-2.99958364 4.95919217 -5.00045254 4.95745644 -7 5 C-7 6.32 -7 7.64 -7 9 C-6.31292969 9.18175781 -5.62585937 9.36351562 -4.91796875 9.55078125 C-4.01691406 9.80214844 -3.11585937 10.05351563 -2.1875 10.3125 C-1.29417969 10.55613281 -0.40085937 10.79976562 0.51953125 11.05078125 C3.10290672 12.03938005 4.38092642 12.77107537 6 15 C5.89068776 21.12148565 5.89068776 21.12148565 3.28515625 23.69140625 C-0.862348 26.06647279 -5.37117808 25.64620883 -10 25 C-12.6875 23.1875 -12.6875 23.1875 -14 21 C-14 20.01 -14 19.02 -14 18 C-11.6875 17.8125 -11.6875 17.8125 -9 18 C-8.525625 18.515625 -8.05125 19.03125 -7.5625 19.5625 C-7.046875 20.036875 -6.53125 20.51125 -6 21 C-2.85078091 20.76716851 -2.85078091 20.76716851 0 20 C-0.11485744 18.02496285 -0.11485744 18.02496285 -1 16 C-3.2492114 14.92871295 -3.2492114 14.92871295 -5.9375 14.375 C-10.81904762 13.18095238 -10.81904762 13.18095238 -13 11 C-13.4375 7.625 -13.4375 7.625 -13 4 C-9.41993179 -0.36320813 -5.34091546 -1.08756545 0 0 Z " fill="#706F75" transform="translate(1179,754)"/>
<path d="M0 0 C3 1.8125 3 1.8125 5 4 C5 4.99 5 5.98 5 7 C0.125 6.125 0.125 6.125 -1 5 C-2.99958364 4.95919217 -5.00045254 4.95745644 -7 5 C-7 6.32 -7 7.64 -7 9 C-6.31292969 9.18175781 -5.62585938 9.36351562 -4.91796875 9.55078125 C-4.01691406 9.80214844 -3.11585938 10.05351563 -2.1875 10.3125 C-1.29417969 10.55613281 -0.40085937 10.79976562 0.51953125 11.05078125 C3.10290672 12.03938005 4.38092642 12.77107537 6 15 C5.89068776 21.12148565 5.89068776 21.12148565 3.28515625 23.69140625 C-0.862348 26.06647279 -5.37117808 25.64620883 -10 25 C-12.6875 23.1875 -12.6875 23.1875 -14 21 C-14 20.01 -14 19.02 -14 18 C-11.6875 17.8125 -11.6875 17.8125 -9 18 C-8.525625 18.515625 -8.05125 19.03125 -7.5625 19.5625 C-7.046875 20.036875 -6.53125 20.51125 -6 21 C-2.85078091 20.76716851 -2.85078091 20.76716851 0 20 C-0.11485744 18.02496285 -0.11485744 18.02496285 -1 16 C-3.2492114 14.92871295 -3.2492114 14.92871295 -5.9375 14.375 C-10.81904762 13.18095238 -10.81904762 13.18095238 -13 11 C-13.4375 7.625 -13.4375 7.625 -13 4 C-9.41993179 -0.36320813 -5.34091546 -1.08756545 0 0 Z " fill="#706F75" transform="translate(758,754)"/>
<path d="M0 0 C2.31830344 1.90919107 2.82111836 2.81247746 3.125 5.75 C1.475 5.75 -0.175 5.75 -1.875 5.75 C-1.875 5.09 -1.875 4.43 -1.875 3.75 C-4.845 3.75 -7.815 3.75 -10.875 3.75 C-10.545 5.07 -10.215 6.39 -9.875 7.75 C-7.65771679 8.78533079 -7.65771679 8.78533079 -5 9.3125 C-1.41538607 10.15378694 0.85362084 10.75089742 3.125 13.75 C3.63910062 17.20181843 3.50615483 19.06029126 1.8125 22.125 C-2.51623401 24.74237405 -6.95589798 24.50391397 -11.875 23.75 C-14.5625 21.9375 -14.5625 21.9375 -15.875 19.75 C-15.875 18.76 -15.875 17.77 -15.875 16.75 C-11.125 17.5 -11.125 17.5 -8.875 19.75 C-5.77573181 19.42801034 -5.77573181 19.42801034 -2.875 18.75 C-2.545 17.43 -2.215 16.11 -1.875 14.75 C-2.55046875 14.65203125 -3.2259375 14.5540625 -3.921875 14.453125 C-7.89901084 13.78643749 -11.12021027 13.22393774 -14.5625 11.0625 C-15.875 8.75 -15.875 8.75 -15.9375 5.1875 C-14.875 1.75 -14.875 1.75 -12.75 -0.1875 C-8.12630473 -1.89625695 -4.53996156 -1.97389633 0 0 Z " fill="#716F74" transform="translate(920.875,755.25)"/>
<path d="M0 0 C2.5625 1.875 2.5625 1.875 4 4 C4 4.99 4 5.98 4 7 C1.6875 7.1875 1.6875 7.1875 -1 7 C-1.474375 6.484375 -1.94875 5.96875 -2.4375 5.4375 C-2.953125 4.963125 -3.46875 4.48875 -4 4 C-7.11993606 4.07542341 -7.11993606 4.07542341 -10 5 C-11.23887548 7.47775095 -11.16741669 9.23653707 -11.1875 12 C-11.20167969 12.886875 -11.21585938 13.77375 -11.23046875 14.6875 C-11.22713126 17.19519984 -11.22713126 17.19519984 -9 19 C-6 19.41666667 -6 19.41666667 -3 19 C-2.34 18.01 -1.68 17.02 -1 16 C1.625 15.8125 1.625 15.8125 4 16 C3.6789295 18.96990216 3.47610823 20.55170933 1.26171875 22.63671875 C-2.62765726 24.9810922 -6.60982953 24.78142193 -11 24 C-13.82424288 21.80977082 -15.41508603 20.16982793 -17 17 C-17.50187235 12.61220177 -18.00725149 8.01450297 -15.98828125 3.9765625 C-11.4176008 -1.65100201 -6.58044392 -1.55602555 0 0 Z " fill="#706F77" transform="translate(642,755)"/>
<path d="M0 0 C0.99 0 1.98 0 3 0 C3.0989211 4.21746325 3.17149012 8.43431121 3.21972656 12.65258789 C3.23983525 14.08727786 3.26712673 15.52188593 3.30175781 16.95629883 C3.3503146 19.01924839 3.37297406 21.08111431 3.390625 23.14453125 C3.41157227 24.38565674 3.43251953 25.62678223 3.45410156 26.90551758 C3 30 3 30 1.16308594 31.8659668 C-3.00992799 34.05373764 -6.32727272 34.39599384 -11 34 C-14.4375 32 -14.4375 32 -17 30 C-16.505 28.515 -16.505 28.515 -16 27 C-11.125 27.875 -11.125 27.875 -10 29 C-7.04182893 29.25005386 -7.04182893 29.25005386 -4 29 C-1.68313634 27.12355493 -1.68313634 27.12355493 -1.8125 24.0625 C-1.87049768 20.95906921 -1.87049768 20.95906921 -3 18 C-2.67 17.34 -2.34 16.68 -2 16 C-1.9047301 14.52331663 -1.87014041 13.04224543 -1.875 11.5625 C-1.87242188 10.78003906 -1.86984375 9.99757813 -1.8671875 9.19140625 C-1.91617452 6.82104653 -1.91617452 6.82104653 -3 4 C-2.34 3.67 -1.68 3.34 -1 3 C-0.67 2.01 -0.34 1.02 0 0 Z " fill="#736E70" transform="translate(1129,755)"/>
<path d="M0 0 C0.99 0 1.98 0 3 0 C3.0989211 4.21746325 3.17149012 8.43431121 3.21972656 12.65258789 C3.23983525 14.08727786 3.26712673 15.52188593 3.30175781 16.95629883 C3.3503146 19.01924839 3.37297406 21.08111431 3.390625 23.14453125 C3.41157227 24.38565674 3.43251953 25.62678223 3.45410156 26.90551758 C3 30 3 30 1.16308594 31.8659668 C-3.00992799 34.05373764 -6.32727272 34.39599384 -11 34 C-14.4375 32 -14.4375 32 -17 30 C-16.505 28.515 -16.505 28.515 -16 27 C-11.125 27.875 -11.125 27.875 -10 29 C-7.04182893 29.25005386 -7.04182893 29.25005386 -4 29 C-1.68313634 27.12355493 -1.68313634 27.12355493 -1.8125 24.0625 C-1.87049768 20.95906921 -1.87049768 20.95906921 -3 18 C-2.67 17.34 -2.34 16.68 -2 16 C-1.9047301 14.52331663 -1.87014041 13.04224543 -1.875 11.5625 C-1.87242187 10.78003906 -1.86984375 9.99757813 -1.8671875 9.19140625 C-1.91617452 6.82104653 -1.91617452 6.82104653 -3 4 C-2.34 3.67 -1.68 3.34 -1 3 C-0.67 2.01 -0.34 1.02 0 0 Z " fill="#736E70" transform="translate(438,755)"/>
<path d="M0 0 C1.65 0 3.3 0 5 0 C5 1.65 5 3.3 5 5 C6.65 5 8.3 5 10 5 C10 6.32 10 7.64 10 9 C8.35 9 6.7 9 5 9 C5.33 14.28 5.66 19.56 6 25 C7.32 25.33 8.64 25.66 10 26 C10 27.32 10 28.64 10 30 C3.50467761 30.36765976 3.50467761 30.36765976 1.2878418 28.75268555 C-0.30953196 26.57874315 -0.34988641 25.44466137 -0.29296875 22.76953125 C-0.28330078 21.96708984 -0.27363281 21.16464844 -0.26367188 20.33789062 C-0.23853516 19.50451172 -0.21339844 18.67113281 -0.1875 17.8125 C-0.17396484 16.96751953 -0.16042969 16.12253906 -0.14648438 15.25195312 C-0.11115799 13.16769616 -0.05735139 11.08376723 0 9 C-1.32 9 -2.64 9 -4 9 C-4 7.68 -4 6.36 -4 5 C-2.68 5 -1.36 5 0 5 C0 3.35 0 1.7 0 0 Z " fill="#6E717B" transform="translate(891,749)"/>
<path d="M0 0 C1.65 0 3.3 0 5 0 C5 1.98 5 3.96 5 6 C6.65 6 8.3 6 10 6 C10 7.32 10 8.64 10 10 C8.35 10 6.7 10 5 10 C5.33 15.28 5.66 20.56 6 26 C7.32 26.33 8.64 26.66 10 27 C10 28.32 10 29.64 10 31 C6.63318935 31.3060737 4.66711501 31.44792008 1.8125 29.53125 C-0.83457682 25.8344703 -0.44074738 22.67387202 -0.25 18.25 C-0.23195313 17.45722656 -0.21390625 16.66445313 -0.1953125 15.84765625 C-0.14833082 13.89791652 -0.07659044 11.94880122 0 10 C-0.99 10 -1.98 10 -3 10 C-3 8.68 -3 7.36 -3 6 C-2.01 6 -1.02 6 0 6 C0 4.02 0 2.04 0 0 Z " fill="#787173" transform="translate(981,748)"/>
<path d="M0 0 C1.65 0 3.3 0 5 0 C5 1.65 5 3.3 5 5 C6.65 5 8.3 5 10 5 C10 6.32 10 7.64 10 9 C8.35 9 6.7 9 5 9 C5 14.61 5 20.22 5 26 C6.32 26 7.64 26 9 26 C9.33 27.32 9.66 28.64 10 30 C3.50467761 30.36765976 3.50467761 30.36765976 1.2878418 28.75268555 C-0.30953196 26.57874315 -0.34988641 25.44466137 -0.29296875 22.76953125 C-0.28330078 21.96708984 -0.27363281 21.16464844 -0.26367188 20.33789062 C-0.23853516 19.50451172 -0.21339844 18.67113281 -0.1875 17.8125 C-0.17396484 16.96751953 -0.16042969 16.12253906 -0.14648438 15.25195312 C-0.11115799 13.16769616 -0.05735139 11.08376723 0 9 C-1.32 9 -2.64 9 -4 9 C-4 7.68 -4 6.36 -4 5 C-2.68 5 -1.36 5 0 5 C0 3.35 0 1.7 0 0 Z " fill="#6D737E" transform="translate(573,749)"/>
<path d="M0 0 C3.08453641 2.75107301 3.92292801 4.38342407 4.4375 8.5 C3.96617917 12.27056665 3.6099322 14.22168508 1 17 C-2.5 17.5625 -2.5 17.5625 -6 17 C-7.9375 15.5625 -7.9375 15.5625 -9 13 C-9.64648739 8.59580465 -9.80441908 5.22152528 -7.3125 1.4375 C-4.49326807 -0.31499552 -3.25163553 -0.73161799 0 0 Z " fill="#F8FAF8" transform="translate(1009,758)"/>
<path d="M0 0 C2.8125 1 2.8125 1 4.8125 4 C5.11328125 6.375 5.11328125 6.375 5.125 9 C5.14175781 9.86625 5.15851562 10.7325 5.17578125 11.625 C4.8125 14 4.8125 14 3.48046875 15.7890625 C0.89504851 17.66606548 -1.09122933 17.38703383 -4.1875 17 C-6.22417615 15.45493534 -7.04823078 14.27853844 -8.1875 12 C-8.68505018 7.60497342 -8.65493573 5.65990926 -6.0625 2 C-3.1875 0 -3.1875 0 0 0 Z " fill="#F6F9F8" transform="translate(663.1875,758)"/>
<path d="M0 0 C2.9375 1 2.9375 1 4.8125 2.5625 C6.43651256 6.08119387 6.63173653 9.19339971 5.9375 13 C4.3125 15.5 4.3125 15.5 1.9375 17 C-1.125 17.5 -1.125 17.5 -4.0625 17 C-6.41015848 15.2001285 -6.94849016 13.76710325 -7.37890625 10.87109375 C-7.57533484 7.02489519 -7.49321585 4.69577175 -5.4375 1.375 C-3.0625 0 -3.0625 0 0 0 Z " fill="#F7F7F6" transform="translate(355.0625,758)"/>
<path d="M0 0 C2.9375 1 2.9375 1 4.8125 2.625 C6.36977624 5.91258317 6.25866044 8.40300304 5.9375 12 C4.92013229 14.76142665 4.57579259 15.68085371 1.9375 17 C-3.33138708 17.5605199 -3.33138708 17.5605199 -5.9375 15.5625 C-7.63100528 11.7050713 -7.73759931 8.14162049 -7.0625 4 C-4.93762868 0.56751556 -4.04394359 0 0 0 Z " fill="#F7F9F6" transform="translate(819.0625,758)"/>
<path d="M0 0 C2.8125 1 2.8125 1 4.8125 4 C5.38847403 8.06173896 5.34349197 11.7905183 3.6875 15.5625 C1.8125 17 1.8125 17 -1.125 17.5625 C-4.1875 17 -4.1875 17 -6.5625 14.9375 C-8.61533478 11.22660635 -8.8599224 9.1839616 -8.1875 5 C-5.6298934 1.38926126 -4.50388177 0 0 0 Z " fill="#F6F7F6" transform="translate(690.1875,758)"/>
<path d="M0 0 C2.875 0.875 2.875 0.875 4.875 2.875 C5.17578125 5.37109375 5.17578125 5.37109375 5.1875 8.3125 C5.21263672 9.76462891 5.21263672 9.76462891 5.23828125 11.24609375 C4.875 13.875 4.875 13.875 3.54296875 15.6953125 C0.92065376 17.54997087 -1.01505586 17.32853352 -4.125 16.875 C-6.47265848 15.0751285 -7.01099016 13.64210325 -7.44140625 10.74609375 C-7.63783484 6.89989519 -7.55571585 4.57077175 -5.5 1.25 C-3.125 -0.125 -3.125 -0.125 0 0 Z " fill="#F9FBFA" transform="translate(847.125,758.125)"/>
<path d="M0 0 C2.875 0.875 2.875 0.875 4.875 2.875 C5.17578125 5.37109375 5.17578125 5.37109375 5.1875 8.3125 C5.21263672 9.76462891 5.21263672 9.76462891 5.23828125 11.24609375 C4.875 13.875 4.875 13.875 3.54296875 15.6953125 C0.92065376 17.54997087 -1.01505586 17.32853352 -4.125 16.875 C-6.47265848 15.0751285 -7.01099016 13.64210325 -7.44140625 10.74609375 C-7.63783484 6.89989519 -7.55571585 4.57077175 -5.5 1.25 C-3.125 -0.125 -3.125 -0.125 0 0 Z " fill="#F9FBFB" transform="translate(317.125,758.125)"/>
<path d="M0 0 C2.875 0.875 2.875 0.875 4.875 3.875 C5.558557 8.19094711 5.57294112 11.74755665 3.25 15.5 C0.875 16.875 0.875 16.875 -2.25 16.8125 C-5.125 15.875 -5.125 15.875 -7.125 12.875 C-7.4609375 10.5 -7.4609375 10.5 -7.5 7.875 C-7.52835938 7.00875 -7.55671875 6.1425 -7.5859375 5.25 C-7.125 2.875 -7.125 2.875 -5.296875 1.0546875 C-3.125 -0.125 -3.125 -0.125 0 0 Z " fill="#F8F9F8" transform="translate(1123.125,758.125)"/>
<path d="M0 0 C2.875 0.875 2.875 0.875 4.875 3.875 C5.558557 8.19094711 5.57294112 11.74755665 3.25 15.5 C0.875 16.875 0.875 16.875 -2.25 16.8125 C-5.125 15.875 -5.125 15.875 -7.125 12.875 C-7.4609375 10.5 -7.4609375 10.5 -7.5 7.875 C-7.52835937 7.00875 -7.55671875 6.1425 -7.5859375 5.25 C-7.125 2.875 -7.125 2.875 -5.296875 1.0546875 C-3.125 -0.125 -3.125 -0.125 0 0 Z " fill="#F8F9F8" transform="translate(432.125,758.125)"/>
<path d="M0 0 C1.65 0 3.3 0 5 0 C5 10.89 5 21.78 5 33 C3.35 33 1.7 33 0 33 C0 22.11 0 11.22 0 0 Z " fill="#766B75" transform="translate(372,746)"/>
<path d="M0 0 C1.65 0 3.3 0 5 0 C5.33 0.66 5.66 1.32 6 2 C6.99 1.34 7.98 0.68 9 0 C10.32 0 11.64 0 13 0 C13 1.32 13 2.64 13 4 C9.535 5.485 9.535 5.485 6 7 C5.67 12.94 5.34 18.88 5 25 C3.35 25 1.7 25 0 25 C0 16.75 0 8.5 0 0 Z " fill="#776D75" transform="translate(528,754)"/>
<path d="M0 0 C0.86236771 -0.00137466 1.72473541 -0.00274933 2.61323547 -0.00416565 C3.55622498 -0.00057037 4.49921448 0.0030249 5.47077942 0.00672913 C6.4660817 0.0065831 7.46138397 0.00643707 8.48684692 0.00628662 C11.78205024 0.0069842 15.07719728 0.01476941 18.37239075 0.02259827 C20.65496795 0.02446299 22.93754555 0.02588664 25.22012329 0.02688599 C31.23217369 0.03070684 37.24419998 0.04053348 43.25624084 0.05158997 C49.3893552 0.06181334 55.52247345 0.0663856 61.65559387 0.07142639 C73.69271384 0.0821561 85.72981592 0.09922738 97.766922 0.12025452 C97.766922 0.45025452 97.766922 0.78025452 97.766922 1.12025452 C46.781922 1.61525452 46.781922 1.61525452 -5.233078 2.12025452 C-5.233078 2.78025452 -5.233078 3.44025452 -5.233078 4.12025452 C-6.223078 4.12025452 -7.213078 4.12025452 -8.233078 4.12025452 C-8.233078 5.11025452 -8.233078 6.10025452 -8.233078 7.12025452 C-9.223078 7.61525452 -9.223078 7.61525452 -10.233078 8.12025452 C-10.70206763 10.93623942 -10.70206763 10.93623942 -10.858078 14.18275452 C-10.93284363 15.28748108 -11.00760925 16.39220764 -11.0846405 17.53041077 C-11.13362488 18.3850592 -11.18260925 19.23970764 -11.233078 20.12025452 C-10.573078 20.12025452 -9.913078 20.12025452 -9.233078 20.12025452 C-8.903078 22.43025452 -8.573078 24.74025452 -8.233078 27.12025452 C-10.20573425 25.62025452 -10.20573425 25.62025452 -12.233078 23.12025452 C-12.60697745 20.29392797 -12.74947527 17.93001524 -12.670578 15.12025452 C-12.67766785 14.40869202 -12.68475769 13.69712952 -12.69206238 12.96400452 C-12.6529464 9.7384405 -12.42051546 7.45440486 -10.83073425 4.62025452 C-9.233078 3.12025452 -9.233078 3.12025452 -7.233078 3.12025452 C-7.233078 2.46025452 -7.233078 1.80025452 -7.233078 1.12025452 C-4.46790679 0.19853078 -2.84863929 -0.00350386 0 0 Z " fill="#84B161" transform="translate(549.2330780029297,285.87974548339844)"/>
<path d="M0 0 C3.79505259 -0.44128519 5.50996748 -0.34188315 8.6875 1.875 C11.98544806 6.33168656 11.55991724 9.92641701 11.3125 15.3125 C11.27866211 16.70952148 11.27866211 16.70952148 11.24414062 18.13476562 C11.18542078 20.4248396 11.10336858 22.71157875 11 25 C9.35 25 7.7 25 6 25 C5.67 18.4 5.34 11.8 5 5 C2.69 5 0.38 5 -2 5 C-1.34 3.35 -0.68 1.7 0 0 Z " fill="#6F7481" transform="translate(1069,754)"/>
<path d="M0 0 C1.588125 -0.061875 3.17625 -0.12375 4.8125 -0.1875 C6.15248047 -0.23970703 6.15248047 -0.23970703 7.51953125 -0.29296875 C10 0 10 0 11.8359375 1.28515625 C13 3 13 3 12.8125 6.625 C12.544375 7.73875 12.27625 8.8525 12 10 C9.47524538 11.26237731 7.68799534 11.09856404 4.875 11.0625 C3.26625 11.041875 1.6575 11.02125 0 11 C0 7.37 0 3.74 0 0 Z " fill="#FCFDFA" transform="translate(256,751)"/>
<path d="M0 0 C1.32 0 2.64 0 4 0 C4.33 0.99 4.66 1.98 5 3 C6.32 2.34 7.64 1.68 9 1 C8.51917969 1.79664063 8.03835938 2.59328125 7.54296875 3.4140625 C5.63427751 7.84995759 5.44573749 11.6012911 5.3125 16.375 C5.27833984 17.20644531 5.24417969 18.03789063 5.20898438 18.89453125 C5.12712854 20.92923351 5.06187299 22.96459208 5 25 C3.35 25 1.7 25 0 25 C0 16.75 0 8.5 0 0 Z " fill="#6C737F" transform="translate(953,754)"/>
<path d="M0 0 C1.65 0 3.3 0 5 0 C5 8.25 5 16.5 5 25 C3.35 25 1.7 25 0 25 C0 16.75 0 8.5 0 0 Z " fill="#776D76" transform="translate(1035,754)"/>
<path d="M0 0 C1.65 0 3.3 0 5 0 C5 8.25 5 16.5 5 25 C3.35 25 1.7 25 0 25 C0 16.75 0 8.5 0 0 Z " fill="#827771" transform="translate(941,754)"/>
<path d="M0 0 C1.65 0 3.3 0 5 0 C5 8.25 5 16.5 5 25 C3.35 25 1.7 25 0 25 C0 16.75 0 8.5 0 0 Z " fill="#716D7B" transform="translate(796,754)"/>
<path d="M0 0 C1.65 0 3.3 0 5 0 C5 8.25 5 16.5 5 25 C3.35 25 1.7 25 0 25 C0 16.75 0 8.5 0 0 Z " fill="#6C7786" transform="translate(333,754)"/>
<path d="M0 0 C0.99 0 1.98 0 3 0 C3 0.99 3 1.98 3 3 C3.99 3 4.98 3 6 3 C5.67 3.99 5.34 4.98 5 6 C4.85507877 7.40664926 4.75371069 8.8181133 4.68359375 10.23046875 C4.64169922 11.03291016 4.59980469 11.83535156 4.55664062 12.66210938 C4.49766602 13.91217773 4.49766602 13.91217773 4.4375 15.1875 C4.39431641 16.03248047 4.35113281 16.87746094 4.30664062 17.74804688 C4.20068482 19.83184433 4.0998498 21.91590103 4 24 C2.68 24 1.36 24 0 24 C0 16.08 0 8.16 0 0 Z " fill="#676B79" transform="translate(476,755)"/>
<path d="M0 0 C-0.3125 3.375 -0.3125 3.375 -1 7 C-4 9 -4 9 -7.1875 8.625 C-8.5796875 8.315625 -8.5796875 8.315625 -10 8 C-10.33 6.35 -10.66 4.7 -11 3 C-9.54293274 2.49632243 -8.08429904 1.99717444 -6.625 1.5 C-5.81289063 1.2215625 -5.00078125 0.943125 -4.1640625 0.65625 C-2 0 -2 0 0 0 Z " fill="#EEF2F1" transform="translate(560,767)"/>
<path d="M0 0 C-0.3125 3.375 -0.3125 3.375 -1 7 C-4 9 -4 9 -7.1875 8.625 C-8.5796875 8.315625 -8.5796875 8.315625 -10 8 C-10.33 6.35 -10.66 4.7 -11 3 C-9.54293274 2.49632243 -8.08429904 1.99717444 -6.625 1.5 C-5.81289063 1.2215625 -5.00078125 0.943125 -4.1640625 0.65625 C-2 0 -2 0 0 0 Z " fill="#EFF3F2" transform="translate(294,767)"/>
<path d="M0 0 C6.46153846 0.46153846 6.46153846 0.46153846 9 3 C9 4.32 9 5.64 9 7 C4.71 7 0.42 7 -4 7 C-2 2 -2 2 0 0 Z " fill="#EBEEEC" transform="translate(870,758)"/>
<path d="M0 0 C6.46153846 0.46153846 6.46153846 0.46153846 9 3 C9 4.32 9 5.64 9 7 C4.71 7 0.42 7 -4 7 C-2 2 -2 2 0 0 Z " fill="#EBEDEA" transform="translate(714,758)"/>
<path d="M0 0 C3.4375 0.875 3.4375 0.875 5.4375 3.875 C5.4375 4.865 5.4375 5.855 5.4375 6.875 C1.1475 6.875 -3.1425 6.875 -7.5625 6.875 C-6.231068 1.549272 -5.71872964 -0.20065718 0 0 Z " fill="#ECEEED" transform="translate(1150.5625,758.125)"/>
<path d="M0 0 C3.4375 0.875 3.4375 0.875 5.4375 3.875 C5.4375 4.865 5.4375 5.855 5.4375 6.875 C1.1475 6.875 -3.1425 6.875 -7.5625 6.875 C-6.231068 1.549272 -5.71872964 -0.20065718 0 0 Z " fill="#EBEDEB" transform="translate(598.5625,758.125)"/>
<path d="M0 0 C3.4375 0.875 3.4375 0.875 5.4375 3.875 C5.4375 4.865 5.4375 5.855 5.4375 6.875 C1.1475 6.875 -3.1425 6.875 -7.5625 6.875 C-6.231068 1.549272 -5.71872964 -0.20065718 0 0 Z " fill="#ECEEED" transform="translate(459.5625,758.125)"/>
<path d="M0 0 C1.8125 1.25 1.8125 1.25 3 3 C3 4.32 3 5.64 3 7 C-0.96 7 -4.92 7 -9 7 C-8.67 5.35 -8.34 3.7 -8 2 C-4.76746204 -0.15502531 -3.74849077 -0.46856135 0 0 Z " fill="#EDF0F0" transform="translate(515,758)"/>
<path d="M0 0 C0.25 2.3125 0.25 2.3125 0 5 C-1.6875 6.875 -1.6875 6.875 -4 8 C-6.75 7.6875 -6.75 7.6875 -9 7 C-9.33 5.35 -9.66 3.7 -10 2 C-6.3558226 -0.4294516 -4.28758728 -0.16179575 0 0 Z " fill="#F6F8F8" transform="translate(1100,768)"/>
<path d="M0 0 C0.74958984 0.00451172 1.49917969 0.00902344 2.27148438 0.01367188 C4.11852383 0.02543646 5.96552213 0.04337135 7.8125 0.0625 C7.8125 0.3925 7.8125 0.7225 7.8125 1.0625 C-0.6025 1.5575 -0.6025 1.5575 -9.1875 2.0625 C-9.1875 2.7225 -9.1875 3.3825 -9.1875 4.0625 C-10.1775 4.0625 -11.1675 4.0625 -12.1875 4.0625 C-12.1875 5.0525 -12.1875 6.0425 -12.1875 7.0625 C-13.1775 7.5575 -13.1775 7.5575 -14.1875 8.0625 C-14.65648963 10.8784849 -14.65648963 10.8784849 -14.8125 14.125 C-14.88726563 15.22972656 -14.96203125 16.33445312 -15.0390625 17.47265625 C-15.08804688 18.32730469 -15.13703125 19.18195313 -15.1875 20.0625 C-14.5275 20.0625 -13.8675 20.0625 -13.1875 20.0625 C-12.8575 22.3725 -12.5275 24.6825 -12.1875 27.0625 C-14.16015625 25.5625 -14.16015625 25.5625 -16.1875 23.0625 C-16.56139945 20.23617345 -16.70389727 17.87226072 -16.625 15.0625 C-16.63208984 14.3509375 -16.63917969 13.639375 -16.64648438 12.90625 C-16.60736839 9.68068598 -16.37493746 7.39665034 -14.78515625 4.5625 C-13.1875 3.0625 -13.1875 3.0625 -11.1875 3.0625 C-11.1875 2.4025 -11.1875 1.7425 -11.1875 1.0625 C-7.42449626 -0.19183458 -3.91539091 -0.04445422 0 0 Z " fill="#8BB56B" transform="translate(553.1875,285.9375)"/>
<path d="M0 0 C12.97272983 2.69890357 12.97272983 2.69890357 17.625 4.0625 C22.6750007 5.46527797 27.82478964 6.20119906 33 7 C33 7.33 33 7.66 33 8 C23.90645954 8.55674738 8.13792216 7.30922504 1.0625 1.375 C0.711875 0.92125 0.36125 0.4675 0 0 Z " fill="#F0DF84" transform="translate(669,230)"/>
<path d="M0 0 C0.33 0 0.66 0 1 0 C1 6.6 1 13.2 1 20 C1.66 20 2.32 20 3 20 C3.33 24.29 3.66 28.58 4 33 C0.86918274 29.86918274 0.10526042 26.37970382 -0.22705078 22.02392578 C-0.21657715 21.0079834 -0.20610352 19.99204102 -0.1953125 18.9453125 C-0.18886719 17.83671875 -0.18242187 16.728125 -0.17578125 15.5859375 C-0.15902344 14.44382812 -0.14226562 13.30171875 -0.125 12.125 C-0.11597656 10.9596875 -0.10695313 9.794375 -0.09765625 8.59375 C-0.07417432 5.72895423 -0.04133141 2.86458465 0 0 Z " fill="#C1D6A7" transform="translate(479,328)"/>
<path d="M0 0 C0 0.66 0 1.32 0 2 C-0.99 2 -1.98 2 -3 2 C-3.2475 2.57234375 -3.495 3.1446875 -3.75 3.734375 C-5.19316199 6.35010611 -6.88216222 8.14773456 -9 10.25 C-9.70125 10.95640625 -10.4025 11.6628125 -11.125 12.390625 C-13 14 -13 14 -15 14 C-15 14.99 -15 15.98 -15 17 C-15.66 17 -16.32 17 -17 17 C-16.67 15.68 -16.34 14.36 -16 13 C-15.34 13 -14.68 13 -14 13 C-13.74089844 12.40316406 -13.48179687 11.80632812 -13.21484375 11.19140625 C-11.90986856 8.83741563 -10.64525787 7.61714344 -8.5625 5.9375 C-6.73823125 4.4520803 -5.02302589 3.02426445 -3.40234375 1.31640625 C-2 0 -2 0 0 0 Z " fill="#6DA354" transform="translate(847,111)"/>
<path d="M0 0 C8.93563368 0.9423435 17.49160169 1.93206792 26 5 C22.87819599 5.96661363 20.47916205 5.98988909 17.25 5.5625 C16.05117188 5.40974609 16.05117188 5.40974609 14.828125 5.25390625 C14.22484375 5.17011719 13.6215625 5.08632812 13 5 C13 4.34 13 3.68 13 3 C12.31292969 2.95101562 11.62585938 2.90203125 10.91796875 2.8515625 C10.01691406 2.77679688 9.11585938 2.70203125 8.1875 2.625 C7.29417969 2.55539063 6.40085937 2.48578125 5.48046875 2.4140625 C3 2 3 2 0 0 Z " fill="#F4DD80" transform="translate(755,189)"/>
<path d="M0 0 C6.15234375 -0.09765625 6.15234375 -0.09765625 8 0 C8.33 0.33 8.66 0.66 9 1 C10.34015221 1.15582303 11.68758903 1.25044142 13.03515625 1.31640625 C13.84404297 1.35830078 14.65292969 1.40019531 15.48632812 1.44335938 C16.33646484 1.48267578 17.18660156 1.52199219 18.0625 1.5625 C18.91650391 1.60568359 19.77050781 1.64886719 20.65039062 1.69335938 C22.76672037 1.79976702 24.88333813 1.90041731 27 2 C27 2.33 27 2.66 27 3 C23.81257885 3.05865035 20.62529882 3.09381259 17.4375 3.125 C16.09461914 3.15013672 16.09461914 3.15013672 14.72460938 3.17578125 C9.39910095 3.21479596 5.03629311 2.75475782 0 1 C0 0.67 0 0.34 0 0 Z " fill="#9BC082" transform="translate(853,194)"/>
<path d="M0 0 C0.33 0.99 0.66 1.98 1 3 C-1.31 5.31 -3.62 7.62 -6 10 C-6.99 9.67 -7.98 9.34 -9 9 C-7.38405168 6.95880212 -5.7143618 4.95927063 -4 3 C-3.34 3 -2.68 3 -2 3 C-2 2.34 -2 1.68 -2 1 C-1.34 0.67 -0.68 0.34 0 0 Z " fill="#70A559" transform="translate(498,74)"/>
<path d="M0 0 C1.67542976 0.28604898 3.34385343 0.61781233 5 1 C4.67 2.65 4.34 4.3 4 6 C2.68 5.67 1.36 5.34 0 5 C-0.5625 3.0625 -0.5625 3.0625 -1 1 C-0.67 0.67 -0.34 0.34 0 0 Z " fill="#7B787F" transform="translate(333,745)"/>
<path d="M0 0 C1.41778293 2.83556587 0.86257622 4.9908706 0.5625 8.125 C0.46066406 9.22070312 0.35882812 10.31640625 0.25390625 11.4453125 C0.17011719 12.28835938 0.08632813 13.13140625 0 14 C0.66 14 1.32 14 2 14 C2.33 16.31 2.66 18.62 3 21 C1.01953125 19.51171875 1.01953125 19.51171875 -1 17 C-1.31788038 14.1215786 -1.42676526 11.66913149 -1.3125 8.8125 C-1.30283203 8.07580078 -1.29316406 7.33910156 -1.28320312 6.58007812 C-1.16870301 1.16870301 -1.16870301 1.16870301 0 0 Z " fill="#A4C382" transform="translate(538,292)"/>
<path d="M0 0 C1.33332095 2.6666419 0.67102033 4.16680303 0 7 C-0.66 7 -1.32 7 -2 7 C-1.67 11.95 -1.34 16.9 -1 22 C-1.66 21.67 -2.32 21.34 -3 21 C-3 15.39 -3 9.78 -3 4 C-2.34 4 -1.68 4 -1 4 C-0.67 2.68 -0.34 1.36 0 0 Z " fill="#A2C48D" transform="translate(850,138)"/>
<path d="M0 0 C0 1.32 0 2.64 0 4 C-2.31 4.66 -4.62 5.32 -7 6 C-7.33 5.01 -7.66 4.02 -8 3 C-4.93882432 0.37613513 -4.26826873 0 0 0 Z " fill="#716C6F" transform="translate(541,754)"/>
<path d="M0 0 C1.67542976 0.28604898 3.34385343 0.61781233 5 1 C4.67 2.32 4.34 3.64 4 5 C2.68 5.33 1.36 5.66 0 6 C-0.38218767 4.34385343 -0.71395102 2.67542976 -1 1 C-0.67 0.67 -0.34 0.34 0 0 Z " fill="#757781" transform="translate(1036,745)"/>
<path d="M0 0 C1.65 0.33 3.3 0.66 5 1 C4.6875 2.9375 4.6875 2.9375 4 5 C3.01 5.33 2.02 5.66 1 6 C0.34 5.67 -0.32 5.34 -1 5 C-0.67 3.35 -0.34 1.7 0 0 Z " fill="#7A737B" transform="translate(942,745)"/>
<path d="M0 0 C1.98 0.495 1.98 0.495 4 1 C3.67 2.65 3.34 4.3 3 6 C1.68 5.67 0.36 5.34 -1 5 C-0.67 3.35 -0.34 1.7 0 0 Z " fill="#727078" transform="translate(797,745)"/>
<path d="M0 0 C1.36125 0.12375 1.36125 0.12375 2.75 0.25 C2.75 0.58 2.75 0.91 2.75 1.25 C1.780625 1.518125 0.81125 1.78625 -0.1875 2.0625 C-1.198125 2.454375 -2.20875 2.84625 -3.25 3.25 C-3.58 4.24 -3.91 5.23 -4.25 6.25 C-5.24 5.59 -6.23 4.93 -7.25 4.25 C-4.83923194 1.28290085 -3.90322061 0.30024774 0 0 Z " fill="#7A797F" transform="translate(819.25,753.75)"/>
</svg>
