<svg xmlns="http://www.w3.org/2000/svg" width="1104" height="214" fill="none"><g clip-path="url(#a)"><g filter="url(#b)"><path fill="url(#c)" fill-rule="evenodd" d="M1025.72 293.973L470.736 95.264 719.984-51.707l305.736 345.68z" clip-rule="evenodd"/></g><g filter="url(#d)"><path fill="url(#e)" fill-rule="evenodd" d="M1173.72 293.973L618.736 95.264 867.984-51.707l305.736 345.68z" clip-rule="evenodd"/></g><g filter="url(#f)"><path fill="url(#g)" fill-rule="evenodd" d="M244.715 152.973L-310.264-45.736l249.248-146.971 305.731 345.68z" clip-rule="evenodd"/></g><g filter="url(#h)" style="mix-blend-mode:plus-lighter"><path fill="url(#i)" fill-opacity=".48" fill-rule="evenodd" d="M1204.71 382.96L906 149.988l-162-41 460.71 273.972z" clip-rule="evenodd"/></g><g filter="url(#j)" opacity=".8"><path fill="#FACC15" d="M776 153l1.417 3.583L781 158l-3.583 1.417L776 163l-1.417-3.583L771 158l3.583-1.417L776 153z"/></g><g filter="url(#k)" opacity=".8"><path fill="#FEF08A" d="M749 56l1.417 3.583L754 61l-3.583 1.417L749 66l-1.417-3.583L744 61l3.583-1.417L749 56z"/></g><g filter="url(#l)"><path fill="#FEF08A" d="M736 100l.567 1.433L738 102l-1.433.567L736 104l-.567-1.433L734 102l1.433-.567L736 100z"/></g><g filter="url(#m)"><path fill="#FEF08A" d="M795 50l.283.717L796 51l-.717.283L795 52l-.283-.717L794 51l.717-.283L795 50z"/></g></g><defs><filter id="b" width="739.822" height="530.523" x="378.315" y="-144.129" color-interpolation-filters="sRGB" filterUnits="userSpaceOnUse"><feFlood flood-opacity="0" result="BackgroundImageFix"/><feBlend in="SourceGraphic" in2="BackgroundImageFix" result="shape"/><feGaussianBlur result="effect1_foregroundBlur_65_4436" stdDeviation="46.211"/></filter><filter id="d" width="739.822" height="530.523" x="526.315" y="-144.129" color-interpolation-filters="sRGB" filterUnits="userSpaceOnUse"><feFlood flood-opacity="0" result="BackgroundImageFix"/><feBlend in="SourceGraphic" in2="BackgroundImageFix" result="shape"/><feGaussianBlur result="effect1_foregroundBlur_65_4436" stdDeviation="46.211"/></filter><filter id="f" width="739.822" height="530.523" x="-402.685" y="-285.129" color-interpolation-filters="sRGB" filterUnits="userSpaceOnUse"><feFlood flood-opacity="0" result="BackgroundImageFix"/><feBlend in="SourceGraphic" in2="BackgroundImageFix" result="shape"/><feGaussianBlur result="effect1_foregroundBlur_65_4436" stdDeviation="46.211"/></filter><filter id="h" width="508.715" height="321.973" x="720" y="84.987" color-interpolation-filters="sRGB" filterUnits="userSpaceOnUse"><feFlood flood-opacity="0" result="BackgroundImageFix"/><feBlend in="SourceGraphic" in2="BackgroundImageFix" result="shape"/><feGaussianBlur result="effect1_foregroundBlur_65_4436" stdDeviation="12"/></filter><filter id="j" width="18" height="18" x="767" y="149" color-interpolation-filters="sRGB" filterUnits="userSpaceOnUse"><feFlood flood-opacity="0" result="BackgroundImageFix"/><feBlend in="SourceGraphic" in2="BackgroundImageFix" result="shape"/><feGaussianBlur result="effect1_foregroundBlur_65_4436" stdDeviation="2"/></filter><filter id="k" width="18" height="18" x="740" y="52" color-interpolation-filters="sRGB" filterUnits="userSpaceOnUse"><feFlood flood-opacity="0" result="BackgroundImageFix"/><feBlend in="SourceGraphic" in2="BackgroundImageFix" result="shape"/><feGaussianBlur result="effect1_foregroundBlur_65_4436" stdDeviation="2"/></filter><filter id="l" width="12" height="12" x="730" y="96" color-interpolation-filters="sRGB" filterUnits="userSpaceOnUse"><feFlood flood-opacity="0" result="BackgroundImageFix"/><feBlend in="SourceGraphic" in2="BackgroundImageFix" result="shape"/><feGaussianBlur result="effect1_foregroundBlur_65_4436" stdDeviation="2"/></filter><filter id="m" width="10" height="10" x="790" y="46" color-interpolation-filters="sRGB" filterUnits="userSpaceOnUse"><feFlood flood-opacity="0" result="BackgroundImageFix"/><feBlend in="SourceGraphic" in2="BackgroundImageFix" result="shape"/><feGaussianBlur result="effect1_foregroundBlur_65_4436" stdDeviation="2"/></filter><linearGradient id="c" x1="1085.09" x2="849.332" y1="139.475" y2="-170.932" gradientUnits="userSpaceOnUse"><stop stop-color="#FACC15" stop-opacity=".48"/><stop offset="1" stop-color="#FACC15" stop-opacity=".01"/></linearGradient><linearGradient id="e" x1="1233.09" x2="997.332" y1="139.475" y2="-170.932" gradientUnits="userSpaceOnUse"><stop stop-color="#7E5FFB" stop-opacity=".48"/><stop offset="1" stop-color="#7E5FFB" stop-opacity=".01"/></linearGradient><linearGradient id="g" x1="304.086" x2="68.332" y1="-1.525" y2="-311.932" gradientUnits="userSpaceOnUse"><stop stop-color="#7E5FFB" stop-opacity=".48"/><stop offset="1" stop-color="#7E5FFB" stop-opacity=".01"/></linearGradient><linearGradient id="i" x1="921" x2="798.175" y1="221.988" y2="94.059" gradientUnits="userSpaceOnUse"><stop stop-color="#FACC15"/><stop offset="1" stop-color="#FACC15"/></linearGradient><clipPath id="a"><path fill="#fff" d="M0 0h1104v214H0z"/></clipPath></defs></svg>