<svg version="1.2" xmlns="http://www.w3.org/2000/svg" viewBox="0 0 325 225" width="325" height="225"><defs><linearGradient id="P" gradientUnits="userSpaceOnUse"/><linearGradient id="g1" x2="1" href="#P" gradientTransform="matrix(48,48,-110.239,110.239,41,40)"><stop stop-color="#8bc34a"/><stop offset="1" stop-color="#4caf50"/></linearGradient></defs><style>.a{fill:none;stroke:#4b8e2e;stroke-width:22}.b{fill:none;stroke:url(#g1);stroke-linecap:round;stroke-width:24}.c{fill:none;stroke:#4caf50;stroke-linecap:round;stroke-width:24}.d{fill:none;stroke:#4b8e2e;stroke-width:16}.e{fill:#4b8e2e}.f{fill:#fcc72b}</style><path fill-rule="evenodd" class="a" d="m35 12h256c12.2 0 22 9.8 22 22v156c0 12.2-9.8 22-22 22h-256c-12.2 0-22-9.8-22-22v-156c0-12.2 9.8-22 22-22z"/><path fill-rule="evenodd" class="b" d="m41 88v-37.3c0-1.4 0.3-2.8 0.8-4.1 0.5-1.3 1.3-2.5 2.3-3.5 1-1 2.2-1.8 3.5-2.3 1.3-0.5 2.7-0.8 4.1-0.8h37.3"/><path fill-rule="evenodd" class="c" d="m285 135v37.3c0 1.4-0.3 2.8-0.8 4.1-0.5 1.3-1.3 2.5-2.3 3.5-1 1-2.2 1.8-3.5 2.3-1.3 0.5-2.7 0.8-4.1 0.8h-37.3"/><path fill-rule="evenodd" class="d" d="m265.8 83.5c-12.9 0-23.3-10.4-23.3-23.3 0-12.8 10.4-23.2 23.3-23.2 12.8 0 23.2 10.4 23.2 23.3 0 12.8-10.4 23.2-23.2 23.2z"/><path fill-rule="evenodd" class="e" d="m49 152h64c4.4 0 8 3.6 8 8v4c0 4.4-3.6 8-8 8h-64c-4.4 0-8-3.6-8-8v-4c0-4.4 3.6-8 8-8z"/><path fill-rule="evenodd" class="e" d="m37 180h106c3.9 0 7 3.1 7 7 0 3.9-3.1 7-7 7h-106c-3.9 0-7-3.1-7-7 0-3.9 3.1-7 7-7z"/><path class="f" d="m207.1 95.4l-42.7 61.6c-0.4 0.7-1.1 1.2-1.8 1.4-0.8 0.3-1.6 0.3-2.4 0-0.7-0.2-1.4-0.7-1.8-1.4-0.5-0.6-0.7-1.4-0.6-2.2l1.7-34.1-27.6-5.8q-0.9-0.2-1.6-0.8-0.7-0.6-1-1.4-0.4-0.9-0.3-1.8 0.1-0.9 0.6-1.6l42.7-61.7c0.5-0.7 1.1-1.2 1.9-1.4 0.7-0.3 1.5-0.3 2.3 0 0.8 0.2 1.4 0.7 1.9 1.4 0.4 0.6 0.6 1.4 0.6 2.2l-1.7 34.1 27.5 5.8q0.9 0.2 1.6 0.8 0.7 0.6 1.1 1.4 0.3 0.9 0.2 1.8-0.1 0.9-0.6 1.7z"/></svg>